<svg width="62" height="62" viewBox="0 0 62 62" fill="none" xmlns="http://www.w3.org/2000/svg">
<g filter="url(#filter0_b_19_555)">
<circle cx="31" cy="31" r="31" fill="white" fill-opacity="0.04"/>
</g>
<g filter="url(#filter1_bi_19_555)">
<circle cx="31" cy="31" r="23" fill="white" fill-opacity="0.1"/>
</g>
<g filter="url(#filter2_d_19_555)">
<path d="M23.6699 32.5801H37.6699M24.5399 26.1699H36.7999C37.2804 26.1699 37.6699 26.5594 37.6699 27.0399V34.6299C37.6699 35.1104 37.2804 35.4999 36.7999 35.4999H24.5399C24.0594 35.4999 23.6699 35.1104 23.6699 34.6299V27.0399C23.6699 26.5594 24.0594 26.1699 24.5399 26.1699ZM30.6601 18.5801C29.5801 20.1101 22.6601 23.2501 19.5801 23.2501V33.7501C19.5801 38.0001 30.0501 44.0801 30.6701 44.2401C31.2801 44.0801 41.7501 37.9801 41.7501 33.7501V23.2501C38.6701 23.2501 31.7501 20.1101 30.6701 18.5801H30.6601Z" stroke="white" stroke-width="1.2" stroke-linecap="round" stroke-linejoin="round" shape-rendering="crispEdges"/>
</g>
<defs>
<filter id="filter0_b_19_555" x="-2" y="-2" width="66" height="66" filterUnits="userSpaceOnUse" color-interpolation-filters="sRGB">
<feFlood flood-opacity="0" result="BackgroundImageFix"/>
<feGaussianBlur in="BackgroundImage" stdDeviation="1"/>
<feComposite in2="SourceAlpha" operator="in" result="effect1_backgroundBlur_19_555"/>
<feBlend mode="normal" in="SourceGraphic" in2="effect1_backgroundBlur_19_555" result="shape"/>
</filter>
<filter id="filter1_bi_19_555" x="4" y="4" width="54" height="54" filterUnits="userSpaceOnUse" color-interpolation-filters="sRGB">
<feFlood flood-opacity="0" result="BackgroundImageFix"/>
<feGaussianBlur in="BackgroundImage" stdDeviation="2"/>
<feComposite in2="SourceAlpha" operator="in" result="effect1_backgroundBlur_19_555"/>
<feBlend mode="normal" in="SourceGraphic" in2="effect1_backgroundBlur_19_555" result="shape"/>
<feColorMatrix in="SourceAlpha" type="matrix" values="0 0 0 0 0 0 0 0 0 0 0 0 0 0 0 0 0 0 127 0" result="hardAlpha"/>
<feOffset dy="-4"/>
<feGaussianBlur stdDeviation="6"/>
<feComposite in2="hardAlpha" operator="arithmetic" k2="-1" k3="1"/>
<feColorMatrix type="matrix" values="0 0 0 0 0 0 0 0 0 0 0 0 0 0 0 0 0 0 0.15 0"/>
<feBlend mode="normal" in2="shape" result="effect2_innerShadow_19_555"/>
</filter>
<filter id="filter2_d_19_555" x="14.98" y="17.98" width="31.3701" height="34.8601" filterUnits="userSpaceOnUse" color-interpolation-filters="sRGB">
<feFlood flood-opacity="0" result="BackgroundImageFix"/>
<feColorMatrix in="SourceAlpha" type="matrix" values="0 0 0 0 0 0 0 0 0 0 0 0 0 0 0 0 0 0 127 0" result="hardAlpha"/>
<feOffset dy="4"/>
<feGaussianBlur stdDeviation="2"/>
<feComposite in2="hardAlpha" operator="out"/>
<feColorMatrix type="matrix" values="0 0 0 0 0 0 0 0 0 0 0 0 0 0 0 0 0 0 0.25 0"/>
<feBlend mode="normal" in2="BackgroundImageFix" result="effect1_dropShadow_19_555"/>
<feBlend mode="normal" in="SourceGraphic" in2="effect1_dropShadow_19_555" result="shape"/>
</filter>
</defs>
</svg>
