<svg width="62" height="62" viewBox="0 0 62 62" fill="none" xmlns="http://www.w3.org/2000/svg">
<g filter="url(#filter0_b_19_565)">
<circle cx="31" cy="31" r="31" fill="white" fill-opacity="0.04"/>
</g>
<g filter="url(#filter1_bi_19_565)">
<circle cx="31" cy="31" r="23" fill="white" fill-opacity="0.15"/>
</g>
<path d="M41.7801 21.3499C41.7801 21.0186 41.5115 20.7499 41.1801 20.7499C40.8488 20.7499 40.5801 21.0186 40.5801 21.3499H41.7801ZM41.1801 24.2699V24.8699H41.7801V24.2699H41.1801ZM38.2701 23.67C37.9388 23.67 37.6701 23.9386 37.6701 24.2699C37.6701 24.6013 37.9388 24.8699 38.2701 24.8699V23.67ZM42.9011 26.1505C42.7578 25.8517 42.3994 25.7257 42.1006 25.869C41.8019 26.0123 41.6758 26.3707 41.8192 26.6694L42.9011 26.1505ZM31.5601 19.5999L31.5592 20.2L31.5661 20.1999L31.5601 19.5999ZM24.2701 32.9999C23.9388 32.9999 23.6701 33.2686 23.6701 33.5999C23.6701 33.9313 23.9388 34.2 24.2701 34.2V32.9999ZM39.4301 34.2C39.7615 34.2 40.0301 33.9313 40.0301 33.5999C40.0301 33.2686 39.7615 32.9999 39.4301 32.9999V34.2ZM25.7701 27.1999H37.9401V25.9999H25.7701V27.1999ZM37.9401 27.1999C38.4372 27.1999 38.8401 27.6029 38.8401 28.0999H40.0401C40.0401 26.9402 39.0999 25.9999 37.9401 25.9999V27.1999ZM38.8401 28.0999V35.0199H40.0401V28.0999H38.8401ZM38.8401 35.0199C38.8401 35.517 38.4372 35.9199 37.9401 35.9199V37.1199C39.0999 37.1199 40.0401 36.1797 40.0401 35.0199H38.8401ZM37.9401 35.9199H25.7701V37.1199H37.9401V35.9199ZM25.7701 35.9199C25.2731 35.9199 24.8701 35.517 24.8701 35.0199H23.6701C23.6701 36.1797 24.6103 37.1199 25.7701 37.1199V35.9199ZM24.8701 35.0199V28.0999H23.6701V35.0199H24.8701ZM24.8701 28.0999C24.8701 27.6029 25.2731 27.1999 25.7701 27.1999V25.9999C24.6103 25.9999 23.6701 26.9402 23.6701 28.0999H24.8701ZM40.5801 21.3499V24.2699H41.7801V21.3499H40.5801ZM41.1801 23.67H38.2701V24.8699H41.1801V23.67ZM41.8192 26.6694C42.8888 28.8993 43.2043 31.4165 42.718 33.8413L43.8946 34.0772C44.432 31.3971 44.0833 28.615 42.9011 26.1505L41.8192 26.6694ZM42.718 33.8413C42.2318 36.2661 40.9702 38.467 39.1236 40.1121L39.9218 41.0081C41.9628 39.1899 43.3572 36.7573 43.8946 34.0772L42.718 33.8413ZM39.1236 40.1121C37.277 41.7572 34.9455 42.7571 32.4808 42.9611L32.5798 44.157C35.3039 43.9315 37.8808 42.8263 39.9218 41.0081L39.1236 40.1121ZM32.4808 42.9611C30.0162 43.1651 27.552 42.562 25.4601 41.243L24.82 42.258C27.1322 43.716 29.8557 44.3825 32.5798 44.157L32.4808 42.9611ZM25.4601 41.243C23.3681 39.9239 21.7619 37.9603 20.8836 35.6484L19.7618 36.0746C20.7325 38.6298 22.5079 40.8001 24.82 42.258L25.4601 41.243ZM20.8836 35.6484C20.0053 33.3365 19.9027 30.8017 20.5912 28.4264L19.4386 28.0923C18.6777 30.7177 18.7911 33.5193 19.7618 36.0746L20.8836 35.6484ZM20.5912 28.4264C21.2796 26.051 22.7219 23.964 24.7003 22.4801L23.9803 21.5201C21.7936 23.1602 20.1995 25.4669 19.4386 28.0923L20.5912 28.4264ZM24.7003 22.4801C26.6787 20.9962 29.0861 20.1959 31.5592 20.1999L31.5611 19C28.8277 18.9955 26.167 19.88 23.9803 21.5201L24.7003 22.4801ZM31.5661 20.1999C33.3287 20.1825 35.0713 20.5741 36.6571 21.3439L37.1811 20.2644C35.4285 19.4136 33.5024 18.9807 31.5542 19L31.5661 20.1999ZM36.6571 21.3439C38.2428 22.1137 39.6284 23.2407 40.7051 24.6364L41.6552 23.9035C40.4653 22.3609 38.9338 21.1152 37.1811 20.2644L36.6571 21.3439ZM24.2701 34.2H39.4301V32.9999H24.2701V34.2Z" fill="white"/>
<defs>
<filter id="filter0_b_19_565" x="-2" y="-2" width="66" height="66" filterUnits="userSpaceOnUse" color-interpolation-filters="sRGB">
<feFlood flood-opacity="0" result="BackgroundImageFix"/>
<feGaussianBlur in="BackgroundImage" stdDeviation="1"/>
<feComposite in2="SourceAlpha" operator="in" result="effect1_backgroundBlur_19_565"/>
<feBlend mode="normal" in="SourceGraphic" in2="effect1_backgroundBlur_19_565" result="shape"/>
</filter>
<filter id="filter1_bi_19_565" x="4" y="4" width="54" height="54" filterUnits="userSpaceOnUse" color-interpolation-filters="sRGB">
<feFlood flood-opacity="0" result="BackgroundImageFix"/>
<feGaussianBlur in="BackgroundImage" stdDeviation="2"/>
<feComposite in2="SourceAlpha" operator="in" result="effect1_backgroundBlur_19_565"/>
<feBlend mode="normal" in="SourceGraphic" in2="effect1_backgroundBlur_19_565" result="shape"/>
<feColorMatrix in="SourceAlpha" type="matrix" values="0 0 0 0 0 0 0 0 0 0 0 0 0 0 0 0 0 0 127 0" result="hardAlpha"/>
<feOffset dy="-4"/>
<feGaussianBlur stdDeviation="6"/>
<feComposite in2="hardAlpha" operator="arithmetic" k2="-1" k3="1"/>
<feColorMatrix type="matrix" values="0 0 0 0 0 0 0 0 0 0 0 0 0 0 0 0 0 0 0.15 0"/>
<feBlend mode="normal" in2="shape" result="effect2_innerShadow_19_565"/>
</filter>
</defs>
</svg>
