<svg width="62" height="62" viewBox="0 0 62 62" fill="none" xmlns="http://www.w3.org/2000/svg">
<g filter="url(#filter0_b_19_566)">
<circle cx="31" cy="31" r="31" fill="white" fill-opacity="0.04"/>
</g>
<g filter="url(#filter1_bi_19_566)">
<circle cx="31" cy="31" r="23" fill="white" fill-opacity="0.1"/>
</g>
<path d="M34.9242 28.7542C35.1585 28.5199 35.1585 28.14 34.9242 27.9057C34.6899 27.6713 34.31 27.6713 34.0757 27.9057L34.9242 28.7542ZM33.3299 29.4999V30.0999C33.4891 30.0999 33.6417 30.0367 33.7542 29.9242L33.3299 29.4999ZM32.1699 29.4999L31.7466 29.9251C31.859 30.0371 32.0112 30.0999 32.1699 30.0999V29.4999ZM29.8299 27.1699L30.2533 26.7448C30.1408 26.6328 29.9886 26.5699 29.8299 26.5699V27.1699ZM26.9199 27.1699H26.3199C26.3199 27.5013 26.5886 27.7699 26.9199 27.7699V27.1699ZM26.9199 25.9999L26.4938 25.5775C26.3824 25.6899 26.3199 25.8417 26.3199 25.9999H26.9199ZM28.0799 24.8299V24.2299C27.9199 24.2299 27.7665 24.2938 27.6538 24.4075L28.0799 24.8299ZM29.2499 24.8299V25.4299C29.4082 25.4299 29.56 25.3674 29.6724 25.256L29.2499 24.8299ZM30.4199 23.6699V23.0699C30.2617 23.0699 30.1099 23.1324 29.9975 23.2438L30.4199 23.6699ZM34.6399 24.2699C34.9713 24.2699 35.2399 24.0013 35.2399 23.6699C35.2399 23.3386 34.9713 23.0699 34.6399 23.0699V24.2699ZM25.3257 33.4243C25.56 33.6586 25.9399 33.6586 26.1742 33.4243C26.4085 33.1899 26.4085 32.8101 26.1742 32.5757L25.3257 33.4243ZM25.1699 32.42H24.5699C24.5699 32.5791 24.6331 32.7317 24.7457 32.8443L25.1699 32.42ZM25.1699 30.67L24.7438 30.2476C24.6324 30.3599 24.5699 30.5118 24.5699 30.67H25.1699ZM26.3299 29.5V28.9C26.1699 28.9 26.0165 28.9639 25.9038 29.0776L26.3299 29.5ZM28.6699 29.5L29.0942 29.0757C28.9817 28.9632 28.8291 28.9 28.6699 28.9V29.5ZM28.8957 30.5743C29.13 30.8086 29.5099 30.8086 29.7442 30.5743C29.9785 30.3399 29.9785 29.9601 29.7442 29.7257L28.8957 30.5743ZM19.9201 24.2501L19.499 24.6775C19.6113 24.7881 19.7625 24.8501 19.9201 24.8501V24.2501ZM20.5001 24.2501V23.6501V24.2501ZM22.2501 27.1701V27.7701C22.5815 27.7701 22.8501 27.5015 22.8501 27.1701H22.2501ZM20.5001 27.1701V26.5701C20.3419 26.5701 20.19 26.6326 20.0777 26.744L20.5001 27.1701ZM19.3301 28.3301L18.9077 27.904C18.794 28.0167 18.7301 28.1701 18.7301 28.3301H19.3301ZM19.3301 28.9201L19.7544 29.3444C19.8669 29.2318 19.9301 29.0792 19.9301 28.9201H19.3301ZM18.7501 29.5001V30.1001C18.9092 30.1001 19.0618 30.0369 19.1744 29.9244L18.7501 29.5001ZM21.6699 34.17L21.2438 33.7476C21.1324 33.8599 21.0699 34.0118 21.0699 34.17H21.6699ZM22.8299 33L23.256 33.4224C23.3674 33.3101 23.4299 33.1582 23.4299 33H22.8299ZM22.8299 32.42H23.4299C23.4299 32.2618 23.3674 32.1099 23.256 31.9976L22.8299 32.42ZM21.6699 31.25L22.096 30.8276C21.9833 30.7139 21.8299 30.65 21.6699 30.65V31.25ZM28.37 31.8301V31.23L28.3632 31.2301L28.37 31.8301ZM43.55 42.8701V42.2701V42.8701ZM28.37 42.8701V43.4701V42.8701ZM27.5 42.0001H28.1H27.5ZM27.5 32.7101H28.1V32.71L27.5 32.7101ZM29.8301 39.4C29.4987 39.4 29.2301 39.6686 29.2301 40C29.2301 40.3314 29.4987 40.6 29.8301 40.6V39.4ZM31.0001 40.6C31.3314 40.6 31.6001 40.3314 31.6001 40C31.6001 39.6686 31.3314 39.4 31.0001 39.4V40.6ZM33.3301 39.4C32.9987 39.4 32.7301 39.6686 32.7301 40C32.7301 40.3314 32.9987 40.6 33.3301 40.6V39.4ZM34.5001 40.6C34.8314 40.6 35.1001 40.3314 35.1001 40C35.1001 39.6686 34.8314 39.4 34.5001 39.4V40.6ZM36.8301 39.4C36.4987 39.4 36.2301 39.6686 36.2301 40C36.2301 40.3314 36.4987 40.6 36.8301 40.6V39.4ZM38.0001 40.6C38.3314 40.6 38.6001 40.3314 38.6001 40C38.6001 39.6686 38.3314 39.4 38.0001 39.4V40.6ZM40.3301 39.4C39.9987 39.4 39.7301 39.6686 39.7301 40C39.7301 40.3314 39.9987 40.6 40.3301 40.6V39.4ZM41.5001 40.6C41.8314 40.6 42.1001 40.3314 42.1001 40C42.1001 39.6686 41.8314 39.4 41.5001 39.4V40.6ZM33.62 34.17L33.6228 34.77L33.6268 34.77L33.62 34.17ZM32.75 34.46L32.3922 34.9416C32.6047 35.0995 32.8954 35.0995 33.1079 34.9416L32.75 34.46ZM31.87 34.17L31.8687 33.57C31.8526 33.5701 31.8365 33.5707 31.8204 33.5721L31.87 34.17ZM30.5308 35.625H31.1308H30.5308ZM31.87 37.08L31.8204 37.678C31.8365 37.6793 31.8526 37.68 31.8687 37.68L31.87 37.08ZM32.75 36.79L33.1143 36.3133C32.9017 36.1508 32.6071 36.1488 32.3922 36.3084L32.75 36.79ZM25.9407 38.7971C26.2704 38.8297 26.5642 38.5889 26.5969 38.2591C26.6296 37.9294 26.3888 37.6356 26.059 37.6029L25.9407 38.7971ZM36.2498 28.92L36.8498 28.9242L36.8498 28.9203L36.2498 28.92ZM35.5836 30.0333C35.5467 30.3626 35.7838 30.6594 36.1131 30.6963C36.4424 30.7331 36.7393 30.496 36.7761 30.1667L35.5836 30.0333ZM34.0757 27.9057L32.9057 29.0757L33.7542 29.9242L34.9242 28.7542L34.0757 27.9057ZM33.3299 28.8999H32.1699V30.0999H33.3299V28.8999ZM32.5933 29.0747L30.2533 26.7448L29.4066 27.5951L31.7466 29.9251L32.5933 29.0747ZM29.8299 26.5699H26.9199V27.7699H29.8299V26.5699ZM27.5199 27.1699V25.9999H26.3199V27.1699H27.5199ZM27.346 26.4224L28.506 25.2524L27.6538 24.4075L26.4938 25.5775L27.346 26.4224ZM28.0799 25.4299H29.2499V24.2299H28.0799V25.4299ZM29.6724 25.256L30.8424 24.096L29.9975 23.2438L28.8275 24.4038L29.6724 25.256ZM30.4199 24.2699H34.6399V23.0699H30.4199V24.2699ZM26.1742 32.5757L25.5942 31.9957L24.7457 32.8443L25.3257 33.4243L26.1742 32.5757ZM25.7699 32.42V30.67H24.5699V32.42H25.7699ZM25.596 31.0924L26.756 29.9224L25.9038 29.0776L24.7438 30.2476L25.596 31.0924ZM26.3299 30.1H28.6699V28.9H26.3299V30.1ZM28.2457 29.9243L28.8957 30.5743L29.7442 29.7257L29.0942 29.0757L28.2457 29.9243ZM18.829 24.0175L19.499 24.6775L20.3412 23.8226L19.6712 23.1626L18.829 24.0175ZM19.9201 24.8501H20.5001V23.6501H19.9201V24.8501ZM20.5001 24.8501C20.8051 24.8501 21.0976 24.9712 21.3133 25.1869L22.1618 24.3384C21.7211 23.8977 21.1234 23.6501 20.5001 23.6501V24.8501ZM21.3133 25.1869C21.5289 25.4026 21.6501 25.6951 21.6501 26.0001H22.8501C22.8501 25.3768 22.6025 24.7791 22.1618 24.3384L21.3133 25.1869ZM21.6501 26.0001V27.1701H22.8501V26.0001H21.6501ZM22.2501 26.5701H20.5001V27.7701H22.2501V26.5701ZM20.0777 26.744L18.9077 27.904L19.7525 28.7562L20.9225 27.5962L20.0777 26.744ZM18.7301 28.3301V28.9201H19.9301V28.3301H18.7301ZM18.9058 28.4958L18.3258 29.0758L19.1744 29.9244L19.7544 29.3444L18.9058 28.4958ZM18.7501 28.9001H17.6001V30.1001H18.7501V28.9001ZM22.2699 36.64V34.17H21.0699V36.64H22.2699ZM22.096 34.5924L23.256 33.4224L22.4038 32.5776L21.2438 33.7476L22.096 34.5924ZM23.4299 33V32.42H22.2299V33H23.4299ZM23.256 31.9976L22.096 30.8276L21.2438 31.6724L22.4038 32.8424L23.256 31.9976ZM21.6699 30.65H17.8799V31.85H21.6699V30.65ZM28.37 32.4301H43.54V31.2301H28.37V32.4301ZM43.54 32.4301C43.6143 32.4301 43.6855 32.4596 43.738 32.5121L44.5865 31.6636C44.309 31.386 43.9325 31.2301 43.54 31.2301V32.4301ZM43.738 32.5121C43.7905 32.5646 43.82 32.6358 43.82 32.7101H45.02C45.02 32.3176 44.8641 31.9411 44.5865 31.6636L43.738 32.5121ZM43.82 32.7101V42.0001H45.02V32.7101H43.82ZM43.82 42.0001C43.82 42.0355 43.813 42.0706 43.7994 42.1034L44.9081 42.5626C44.982 42.3843 45.02 42.1931 45.02 42.0001H43.82ZM43.7994 42.1034C43.7859 42.1362 43.766 42.1659 43.7409 42.191L44.5894 43.0395C44.7259 42.903 44.8342 42.741 44.9081 42.5626L43.7994 42.1034ZM43.7409 42.191C43.7158 42.2161 43.6861 42.236 43.6533 42.2495L44.1125 43.3582C44.2909 43.2843 44.4529 43.176 44.5894 43.0395L43.7409 42.191ZM43.6533 42.2495C43.6206 42.2631 43.5855 42.2701 43.55 42.2701V43.4701C43.743 43.4701 43.9342 43.4321 44.1125 43.3582L43.6533 42.2495ZM43.55 42.2701H28.37V43.4701H43.55V42.2701ZM28.37 42.2701C28.2984 42.2701 28.2297 42.2416 28.1791 42.191L27.3306 43.0395C27.6062 43.3152 27.9801 43.4701 28.37 43.4701V42.2701ZM28.1791 42.191C28.1284 42.1404 28.1 42.0717 28.1 42.0001H26.9C26.9 42.3899 27.0549 42.7638 27.3306 43.0395L28.1791 42.191ZM28.1 42.0001V32.7101H26.9V42.0001H28.1ZM28.1 32.71C28.1 32.6363 28.1291 32.5656 28.1809 32.5132L27.3275 31.6695C27.0536 31.9466 26.9 32.3205 26.9 32.7101L28.1 32.71ZM28.1809 32.5132C28.2327 32.4607 28.3031 32.4309 28.3768 32.43L28.3632 31.2301C27.9736 31.2345 27.6014 31.3924 27.3275 31.6695L28.1809 32.5132ZM29.8301 40.6H31.0001V39.4H29.8301V40.6ZM33.3301 40.6H34.5001V39.4H33.3301V40.6ZM36.8301 40.6H38.0001V39.4H36.8301V40.6ZM40.3301 40.6H41.5001V39.4H40.3301V40.6ZM33.6173 33.57C33.1759 33.572 32.7466 33.7151 32.3922 33.9784L33.1079 34.9416C33.2568 34.831 33.4372 34.7708 33.6228 34.77L33.6173 33.57ZM33.1078 33.9784C32.7496 33.7122 32.3149 33.569 31.8687 33.57L31.8714 34.77C32.059 34.7696 32.2417 34.8298 32.3922 34.9416L33.1078 33.9784ZM31.8204 33.5721C31.3053 33.6148 30.8251 33.8496 30.4751 34.2299L31.358 35.0426C31.5041 34.8838 31.7046 34.7858 31.9196 34.768L31.8204 33.5721ZM30.4751 34.2299C30.1251 34.6102 29.9308 35.1082 29.9308 35.625H31.1308C31.1308 35.4092 31.2119 35.2013 31.358 35.0426L30.4751 34.2299ZM29.9308 35.625C29.9308 36.1419 30.1251 36.6398 30.4751 37.0201L31.358 36.2074C31.2119 36.0487 31.1308 35.8408 31.1308 35.625H29.9308ZM30.4751 37.0201C30.8251 37.4004 31.3053 37.6352 31.8204 37.678L31.9196 36.4821C31.7046 36.4642 31.5041 36.3662 31.358 36.2074L30.4751 37.0201ZM31.8687 37.68C32.3149 37.681 32.7496 37.5378 33.1078 37.2716L32.3922 36.3084C32.2417 36.4202 32.059 36.4804 31.8714 36.48L31.8687 37.68ZM32.3857 37.2668C32.6465 37.466 32.9511 37.6001 33.2741 37.6578L33.4852 36.4765C33.3503 36.4524 33.2232 36.3964 33.1143 36.3133L32.3857 37.2668ZM33.2741 37.6578C33.5972 37.7155 33.9294 37.6952 34.243 37.5986L33.8897 36.4518C33.7588 36.4921 33.6201 36.5006 33.4852 36.4765L33.2741 37.6578ZM34.243 37.5986C34.5566 37.502 34.8426 37.3318 35.0772 37.1023L34.2379 36.2446C34.14 36.3404 34.0206 36.4115 33.8897 36.4518L34.243 37.5986ZM35.0772 37.1023C35.3118 36.8728 35.4881 36.5906 35.5915 36.2791L34.4527 35.9009C34.4095 36.031 34.3359 36.1488 34.2379 36.2446L35.0772 37.1023ZM35.5915 36.2791C35.6949 35.9677 35.7224 35.636 35.6718 35.3118L34.4862 35.4971C34.5073 35.6325 34.4958 35.7709 34.4527 35.9009L35.5915 36.2791ZM35.6718 35.3118C35.6211 34.9875 35.4937 34.6801 35.3001 34.4151L34.331 35.1228C34.4118 35.2334 34.465 35.3617 34.4862 35.4971L35.6718 35.3118ZM35.3001 34.4151C35.1066 34.15 34.8525 33.9351 34.5591 33.7881L34.0217 34.861C34.1442 34.9224 34.2502 35.0121 34.331 35.1228L35.3001 34.4151ZM34.5591 33.7881C34.2657 33.6411 33.9414 33.5664 33.6133 33.5701L33.6268 34.77C33.7638 34.7684 33.8992 34.7996 34.0217 34.861L34.5591 33.7881ZM26.059 37.6029C24.3771 37.4363 22.7798 36.785 21.4609 35.7281L20.7105 36.6646C22.2107 37.8667 24.0276 38.6075 25.9407 38.7971L26.059 37.6029ZM21.4609 35.7281C20.142 34.6713 19.1582 33.2543 18.6289 31.6492L17.4893 32.025C18.0913 33.8507 19.2103 35.4625 20.7105 36.6646L21.4609 35.7281ZM18.6289 31.6492C18.0997 30.0441 18.0477 28.3199 18.4794 26.6858L17.3192 26.3793C16.8282 28.238 16.8873 30.1992 17.4893 32.025L18.6289 31.6492ZM18.4794 26.6858C18.911 25.0518 19.8077 23.5781 21.0606 22.4438L20.2552 21.5542C18.8301 22.8445 17.8102 24.5207 17.3192 26.3793L18.4794 26.6858ZM21.0606 22.4438C22.3135 21.3095 23.8688 20.5632 25.5375 20.2956L25.3475 19.1107C23.4494 19.4151 21.6804 20.264 20.2552 21.5542L21.0606 22.4438ZM25.5375 20.2956C27.2063 20.028 28.9169 20.2505 30.4617 20.9362L30.9485 19.8394C29.1914 19.0595 27.2457 18.8063 25.3475 19.1107L25.5375 20.2956ZM30.4617 20.9362C32.0065 21.6219 33.319 22.7413 34.2399 24.1584L35.2461 23.5045C34.1986 21.8926 32.7056 20.6194 30.9485 19.8394L30.4617 20.9362ZM34.2399 24.1584C35.1609 25.5756 35.6507 27.2296 35.6498 28.9197L36.8498 28.9203C36.8508 26.9978 36.2937 25.1165 35.2461 23.5045L34.2399 24.1584ZM35.6499 28.9157C35.6472 29.2892 35.6251 29.6622 35.5836 30.0333L36.7761 30.1667C36.8223 29.7541 36.8469 29.3394 36.8498 28.9242L35.6499 28.9157Z" fill="white"/>
<defs>
<filter id="filter0_b_19_566" x="-2" y="-2" width="66" height="66" filterUnits="userSpaceOnUse" color-interpolation-filters="sRGB">
<feFlood flood-opacity="0" result="BackgroundImageFix"/>
<feGaussianBlur in="BackgroundImage" stdDeviation="1"/>
<feComposite in2="SourceAlpha" operator="in" result="effect1_backgroundBlur_19_566"/>
<feBlend mode="normal" in="SourceGraphic" in2="effect1_backgroundBlur_19_566" result="shape"/>
</filter>
<filter id="filter1_bi_19_566" x="4" y="4" width="54" height="54" filterUnits="userSpaceOnUse" color-interpolation-filters="sRGB">
<feFlood flood-opacity="0" result="BackgroundImageFix"/>
<feGaussianBlur in="BackgroundImage" stdDeviation="2"/>
<feComposite in2="SourceAlpha" operator="in" result="effect1_backgroundBlur_19_566"/>
<feBlend mode="normal" in="SourceGraphic" in2="effect1_backgroundBlur_19_566" result="shape"/>
<feColorMatrix in="SourceAlpha" type="matrix" values="0 0 0 0 0 0 0 0 0 0 0 0 0 0 0 0 0 0 127 0" result="hardAlpha"/>
<feOffset dy="-4"/>
<feGaussianBlur stdDeviation="6"/>
<feComposite in2="hardAlpha" operator="arithmetic" k2="-1" k3="1"/>
<feColorMatrix type="matrix" values="0 0 0 0 0 0 0 0 0 0 0 0 0 0 0 0 0 0 0.15 0"/>
<feBlend mode="normal" in2="shape" result="effect2_innerShadow_19_566"/>
</filter>
</defs>
</svg>
