<?xml version="1.0" encoding="utf-8"?>
<!-- Generator: Adobe Illustrator 26.3.0, SVG Export Plug-In . SVG Version: 6.00 Build 0)  -->
<svg version="1.1" id="Layer_1" xmlns="http://www.w3.org/2000/svg" xmlns:xlink="http://www.w3.org/1999/xlink" x="0px" y="0px" viewBox="0 0 42 31" style="enable-background:new 0 0 42 31;" xml:space="preserve">
	<defs>
		<linearGradient id="bottom-to-top" x1="0.5" y1="1" x2="0.5" y2="0">
			<stop offset="0%" stop-color="#B81C22">
				<animate dur="0.8s" attributeName="offset" fill="freeze" from="0" to="1" repeatCount="indefinite" />
			</stop>
			<stop offset="100%" stop-color="#B4B4B4">
				<animate dur="0.8s" attributeName="offset" fill="freeze" from="0" to="1" repeatCount="indefinite" />
			</stop>
		</linearGradient>
	</defs>

<style type="text/css">
	.st0{fill:#FFFFFF;}
</style>
<g>
	<path class="st0" d="M19.1,29c-0.1,0-0.3,0-0.4-0.1c-2.2-0.9-4-2.4-5.3-4.4c-0.1-0.1-0.2-0.3-0.3-0.4l-0.4-0.7L12,23.5
		c-0.1,0-0.2,0-0.4,0c-0.7,0-1.5-0.2-2.1-0.5c-1.9-1.1-3.4-2.8-4.1-4.9c-0.9-3-2-5.9-3.3-8.7l4-0.1c0.4,0.8,0.6,1.3,0.8,1.7
		c0.3,0.6,0.5,1.1,1.2,2.4c0.2,0.6,0.6,1.2,1.2,1.6c0.5,0.4,1.2,0.6,1.8,0.6h0.7l0.2-0.7c0.7-2.4,2.1-4.4,4.1-5.9
		c1-0.7,2.2-1.3,3.4-1.7L20.6,7L20,5.9c-0.3-0.5-0.4-1-0.4-1.6c0-0.4,0.1-0.9,0.3-1.3C20,2.7,20.2,2.3,20.5,2s0.7-0.6,1.1-0.7
		C22,1.1,22.5,1,22.9,1c0.4,0,0.9,0.1,1.3,0.3C24.6,1.4,25,1.7,25.3,2c0.6,0.6,1,1.5,1,2.4c0,0.5-0.1,1.1-0.4,1.6l-0.1,0.2v1
		l0.7,0.2c2.2,0.6,4.2,2,5.6,3.8l1,1.2l0.7-1.3c0.8-1.6,1.8-2.4,3.2-2.4c0.2,0,0.4,0,0.6,0.1c0.4,0.1,0.8,0.2,1.2,0.4
		c0.4,0.2,0.7,0.5,0.9,0.9c0.3,0.6,0.5,1.2,0.6,1.8c0.1,0.6,0,1.3-0.1,1.9c-0.5,2.8-2.3,4.6-4.2,6.5c-0.8,0.7-1.5,1.5-2.2,2.3
		l-0.1,0.1l-0.1,0.1c-0.2,0.6-0.5,1.1-0.9,1.7l-0.1,0.1c-0.1,0.1-0.2,0.2-0.2,0.3l-0.2,0.2c-1.2,1.6-2.8,2.9-4.7,3.8
		C27.4,29,27.2,29,27,29L19.1,29z" fill="url(#lg)"/>
</g>
<path class="st1" d="M40.5,9.4c-0.6-1-1.6-1.6-2.8-1.8C35,7.2,33.6,9,32.8,10.5c-0.8-1-1.8-1.9-2.9-2.6c-1-0.6-2.1-1.1-3.2-1.5
	c0,0,0,0,0,0c0.3-0.6,0.5-1.4,0.5-2.1c0-1.1-0.5-2.2-1.3-3.1C25.1,0.5,24,0,22.9,0c-1.2,0-2.3,0.5-3.1,1.3c-0.8,0.8-1.3,1.9-1.3,3.1
	c0,0.7,0.2,1.4,0.6,2.1c-1.3,0.4-2.5,1-3.7,1.8c-2.1,1.6-3.7,3.8-4.4,6.4c-0.4,0-0.9-0.1-1.2-0.3c-0.4-0.3-0.7-0.7-0.9-1.1
	c0,0,0-0.1-0.1-0.1c-0.7-1.3-0.9-1.7-1.2-2.4c-0.2-0.4-0.4-0.9-0.8-1.7C6.7,8.6,6.4,8.3,6,8.3H2c-0.4,0-0.7,0.2-0.9,0.5
	c-0.2,0.3-0.2,0.7-0.1,1c1.3,2.8,2.4,5.6,3.3,8.6C4.8,20,6.4,22.7,9,23.9c0.8,0.4,1.7,0.6,2.6,0.6c0.2,0,0.4,0,0.6-0.1
	c0.1,0.2,0.2,0.4,0.4,0.6c1.4,2.1,3.3,3.8,5.7,4.7c0.3,0.1,0.6,0.2,1,0.2H27c0.3,0,0.7-0.1,1-0.2c2-0.9,3.8-2.3,5.1-4.1l0.2-0.3
	c0-0.1,0.1-0.2,0.2-0.2l0.1-0.2c0.4-0.6,0.7-1.2,1-1.8c0.6-0.8,1.3-1.5,2.1-2.3c1.9-1.9,3.9-3.9,4.5-7C41.5,12.3,41.3,10.6,40.5,9.4
	z M22.3,8.2h1.4c1.9,0.1,3.6,0.8,5.1,1.9H17.2C18.7,9,20.4,8.3,22.3,8.2z M21.7,5.9c-0.2-0.2-0.4-0.4-0.5-0.7
	C21.1,4.9,21,4.6,21,4.3c0-0.4,0.1-0.8,0.3-1.1c0.2-0.3,0.5-0.6,0.9-0.7c0.4-0.1,0.8-0.2,1.1-0.1c0.4,0.1,0.7,0.3,1,0.5
	c0.2,0.2,0.3,0.4,0.4,0.6c0.1,0.2,0.2,0.5,0.1,0.8c0,0.3-0.1,0.6-0.2,0.8c-0.1,0.3-0.3,0.5-0.5,0.7c-0.1,0-0.1,0-0.1,0.1
	c-0.1,0-0.2,0-0.3,0h-0.2h-1.5C22,5.9,21.8,5.9,21.7,5.9C21.7,5.9,21.7,5.9,21.7,5.9z M9.9,22c-1.8-0.9-3.2-3-3.6-4.2
	c-0.7-2.5-1.6-5-2.7-7.4h1.7c0.2,0.4,0.3,0.8,0.5,1.1c0.3,0.6,0.5,1.2,1.2,2.4c0.3,0.9,0.9,1.6,1.7,2.1c0.6,0.4,1.2,0.6,1.9,0.7
	c-0.2,1.9,0,3.9,0.6,5.7C10.8,22.4,10.3,22.2,9.9,22z M31.3,24.3c-1.1,1.5-2.5,2.6-4.2,3.3h-7.9c-1.6-0.6-3-1.7-4-3
	c-1.1-1.3-1.8-2.9-2.1-4.5c-0.3-1.7-0.2-3.4,0.3-5c0.4-1.2,1-2.4,1.9-3.3h15.5c0.6,0.7,1.1,1.6,1.5,2.5c0.6,1.3,0.9,2.6,0.9,4h0
	c0,2-0.6,3.9-1.6,5.6L31.3,24.3z M39.1,13.5c-0.5,2.3-1.9,3.9-3.6,5.6c0-0.3,0-0.6,0-0.8c0-2-0.4-3.9-1.3-5.6c0,0,0-0.1-0.1-0.1
	c0,0,0,0,0-0.1c0.9-2.3,1.7-3,3.1-2.8c0.6,0.1,1.1,0.4,1.4,0.9C39.2,11.3,39.4,12.4,39.1,13.5z" fill="url(#bottom-to-top)"/>
</svg>
