<svg width="16" height="16" viewBox="0 0 16 16" fill="none" xmlns="http://www.w3.org/2000/svg">
<g clip-path="url(#clip0_203_6361)">
<path d="M6.43945 8.91992L11.4395 13.9199C11.5379 14.0192 11.6049 14.1453 11.632 14.2825C11.659 14.4197 11.645 14.5618 11.5916 14.6911C11.5382 14.8203 11.4478 14.9309 11.3318 15.009C11.2158 15.087 11.0793 15.1291 10.9395 15.1299C10.847 15.1312 10.7553 15.1143 10.6695 15.0799C10.5836 15.0456 10.5055 14.9946 10.4395 14.9299L5.43945 9.92992" stroke="#83899E" stroke-linecap="round" stroke-linejoin="round"/>
<path d="M5.00031 5.78027C4.7083 6.35065 4.3268 6.87057 3.87031 7.32027C3.42031 7.78078 2.89641 8.16273 2.32031 8.45027" stroke="#83899E" stroke-linecap="round" stroke-linejoin="round"/>
<path d="M7.27914 8.08008C6.70765 8.37029 6.18745 8.75199 5.73914 9.21008C5.27972 9.65492 4.90079 10.176 4.61914 10.7501" stroke="#83899E" stroke-linecap="round" stroke-linejoin="round"/>
<path d="M8.89049 6.42982L6.64049 4.17982C6.50401 4.05474 6.32561 3.98535 6.14049 3.98535C5.95536 3.98535 5.77696 4.05474 5.64049 4.17982L5.11049 4.69982C4.9854 4.8363 4.91602 5.0147 4.91602 5.19982C4.91602 5.38495 4.9854 5.56335 5.11049 5.69982L7.32049 7.99982C7.45696 8.12491 7.63536 8.1943 7.82049 8.1943C8.00561 8.1943 8.18401 8.12491 8.32049 7.99982L8.84049 7.46982C8.98414 7.33802 9.06997 7.15484 9.07934 6.96011C9.0887 6.76537 9.02083 6.57481 8.89049 6.42982Z" fill="white" stroke="#83899E" stroke-linecap="round" stroke-linejoin="round"/>
<path d="M4.54038 10.7797L2.29038 8.51967C2.15391 8.39458 1.97551 8.3252 1.79038 8.3252C1.60526 8.3252 1.42686 8.39458 1.29038 8.51967L0.770382 9.04967C0.643118 9.18505 0.572266 9.36386 0.572266 9.54967C0.572266 9.73547 0.643118 9.91429 0.770382 10.0497L3.00038 12.3497C3.13686 12.4748 3.31526 12.5441 3.50038 12.5441C3.68551 12.5441 3.86391 12.4748 4.00038 12.3497L4.52038 11.8197C4.59064 11.7531 4.64696 11.6732 4.68605 11.5846C4.72514 11.4961 4.74623 11.4006 4.74809 11.3039C4.74995 11.2071 4.73255 11.1109 4.69689 11.0209C4.66123 10.9309 4.60803 10.8489 4.54038 10.7797Z" fill="white" stroke="#83899E" stroke-linecap="round" stroke-linejoin="round"/>
<path d="M7.53906 6.33961L10.8891 2.98961L9.40906 1.50961L15.1391 0.599609L14.2191 6.32961L12.7391 4.84961L9.39906 8.19961L7.53906 6.33961Z" fill="#B81E23"/>
<path d="M14.5401 1.2L13.8901 5.29L12.7401 4.15L9.40008 7.49L8.25008 6.34L11.5901 3L10.4501 1.85L14.5401 1.2ZM15.7401 0L14.3801 0.22L10.3001 0.87L8.36008 1.17L9.75008 2.56L10.1801 2.99L7.54008 5.63L6.83008 6.34L7.54008 7.05L8.69008 8.2L9.40008 8.9L10.1101 8.2L12.7401 5.56L13.1801 5.99L14.5701 7.38L14.8701 5.44L15.5201 1.36L15.7401 0Z" fill="white"/>
</g>
<defs>
<clipPath id="clip0_203_6361">
<rect width="15.74" height="15.65" fill="white"/>
</clipPath>
</defs>
</svg>
