<svg width="14" height="12" viewBox="0 0 14 12" fill="none" xmlns="http://www.w3.org/2000/svg">
<path d="M13.1773 11.9987H0.822C0.583825 11.9987 0.363746 11.8716 0.244662 11.6653C0.125578 11.4591 0.125579 11.2049 0.244666 10.9987L6.422 0.331995C6.54118 0.126069 6.76107 -0.000732422 6.999 -0.000732422C7.23693 -0.000732422 7.45682 0.126069 7.576 0.331995L13.7533 10.9987C13.8724 11.2048 13.8724 11.4588 13.7535 11.665C13.6346 11.8713 13.4147 11.9984 13.1767 11.9987H13.1773ZM6.33333 8.66533V9.99866H6.95533H6.99867H7.042H7.66533V8.66533H6.33333ZM6.33333 3.99866V7.332H7.66667V3.99866H6.33333Z" fill="#F93D5C"/>
</svg>
