<svg width="22" height="19" viewBox="0 0 22 19" fill="none" xmlns="http://www.w3.org/2000/svg">
<path d="M12.4247 1.09444L20.8983 15.5715C21.7584 17.0401 20.7052 18.8904 19.0025 18.9006L2.22821 19C0.525557 19.0101 -0.549457 17.1734 0.293151 15.6938L8.59385 1.11721C9.43573 -0.362222 11.5652 -0.374889 12.4247 1.09444Z" fill="white"/>
<path d="M10.8082 16.6242C11.4741 16.5335 11.9403 15.9202 11.8495 15.2544C11.7588 14.5885 11.1455 14.1223 10.4797 14.2131C9.81384 14.3038 9.34763 14.9171 9.43836 15.5829C9.5291 16.2488 10.1424 16.715 10.8082 16.6242Z" fill="#F93D5C"/>
<path d="M11.8405 11.7601C11.7799 12.441 11.303 12.98 10.6311 12.984C9.95924 12.9881 9.45624 12.432 9.40704 11.7745L8.76545 6.30265C8.71368 5.29538 9.57171 4.47278 10.5797 4.46691C11.5877 4.46103 12.4439 5.2772 12.4155 6.28118L11.8405 11.7601Z" fill="#F93D5C"/>
</svg>
