<svg width="17" height="15" viewBox="0 0 17 15" fill="none" xmlns="http://www.w3.org/2000/svg">
<g clip-path="url(#clip0_203_6185)">
<path d="M8.00042 3.21C7.74252 3.06186 7.52856 2.84791 7.38042 2.59C7.23338 2.3342 7.1542 2.04504 7.15042 1.75C7.14775 1.29024 7.32715 0.84811 7.64943 0.520206C7.97172 0.192301 8.41068 0.00528031 8.87042 3.37294e-06C9.09897 -0.00044791 9.32533 0.0443897 9.53645 0.131926C9.74757 0.219463 9.93925 0.347963 10.1004 0.510003C10.428 0.832078 10.6149 1.27064 10.6204 1.73C10.616 2.02243 10.5441 2.3099 10.4104 2.57C10.2697 2.82567 10.071 3.04485 9.83042 3.21C9.75042 3.21 9.17042 2.36 9.41042 2.34C9.50138 2.26846 9.57347 2.17577 9.62042 2.07C9.66956 1.9671 9.69355 1.85399 9.69042 1.74C9.67781 1.54098 9.5904 1.35409 9.44573 1.21684C9.30105 1.07959 9.10983 1.00213 8.91042 1C8.70145 1.00343 8.50147 1.08557 8.35042 1.23C8.27715 1.30364 8.21912 1.39101 8.17965 1.4871C8.14018 1.58319 8.12006 1.68612 8.12042 1.79C8.1099 1.90665 8.13061 2.024 8.18042 2.13C8.21981 2.24009 8.28906 2.33704 8.38042 2.41C8.62042 2.36 8.05042 3.26 8.00042 3.21Z" fill="#83899E"/>
<path d="M12.9991 4.84953C13.3291 4.00953 13.7791 3.32953 14.7091 3.46953C14.9093 3.5303 15.0951 3.63125 15.255 3.7662C15.4149 3.90115 15.5456 4.06728 15.6392 4.25445C15.7328 4.44161 15.7873 4.64589 15.7993 4.8548C15.8113 5.06371 15.7806 5.27288 15.7091 5.46953C15.3491 7.26953 13.7091 8.08953 12.7891 9.46953" stroke="#83899E" stroke-linecap="round" stroke-linejoin="round"/>
<path d="M5 9.30953C3.4 9.89953 2.11 8.18953 1.82 7.25953C1.48154 6.06029 1.03989 4.89259 0.5 3.76953H2.08C2.47 4.54953 2.41 4.54953 2.86 5.40953C2.95948 5.68435 3.14547 5.91946 3.39 6.07953C3.63378 6.23484 3.92209 6.30516 4.21 6.27953" stroke="#83899E" stroke-linejoin="round"/>
<path d="M9.17945 2.36035H8.55945C7.63381 2.4302 6.74657 2.75945 5.99945 3.31035C4.97958 4.0786 4.29227 5.2079 4.07844 6.46671C3.86461 7.72552 4.14047 9.01843 4.84945 10.0804C5.35883 10.9203 6.10751 11.5888 6.99945 12.0004C7.11656 12.0503 7.24214 12.0775 7.36945 12.0804H10.5194C10.6463 12.0739 10.7713 12.0469 10.8894 12.0004C11.7372 11.6506 12.4687 11.0682 12.9994 10.3204L13.0794 10.2204C13.0933 10.1813 13.1175 10.1468 13.1494 10.1204V10.0504C13.6199 9.31695 13.8905 8.47334 13.9345 7.60314C13.9784 6.73294 13.7942 5.86636 13.4001 5.08927C13.006 4.31218 12.4157 3.65157 11.6876 3.1729C10.9596 2.69424 10.1191 2.41413 9.24945 2.36035H9.17945ZM12.9994 7.36035C13.0014 8.143 12.7793 8.90987 12.3594 9.57035L12.2194 9.77035C11.7936 10.3568 11.2163 10.8165 10.5494 11.1004H7.39945C6.57157 10.7717 5.87707 10.1762 5.42601 9.40813C4.97496 8.64007 4.79317 7.74344 4.90945 6.86035C5.02163 5.91245 5.46421 5.03438 6.15945 4.38035H11.7394C12.1405 4.75857 12.4603 5.2145 12.6794 5.72035C12.8949 6.22603 13.0038 6.7707 12.9994 7.32035V7.36035Z" fill="#83899E"/>
<path d="M11.3504 4.07004C10.7193 3.60266 9.96461 3.33139 9.18039 3.29004H8.63039C7.8509 3.33952 7.10165 3.61008 6.47039 4.07004L6.15039 4.36004H11.7204C11.604 4.25488 11.4803 4.15798 11.3504 4.07004Z" fill="white"/>
<path d="M5.41016 4.37988H12.4102" stroke="#83899E" stroke-miterlimit="10"/>
<path d="M12.3597 14.4098C14.5302 14.4098 16.2897 12.6503 16.2897 10.4798C16.2897 8.30932 14.5302 6.5498 12.3597 6.5498C10.1892 6.5498 8.42969 8.30932 8.42969 10.4798C8.42969 12.6503 10.1892 14.4098 12.3597 14.4098Z" fill="#B81E23" stroke="white" stroke-miterlimit="10"/>
<path d="M12.3594 8.17969V12.7697" stroke="white" stroke-miterlimit="10"/>
<path d="M14.6603 10.4805H10.0703" stroke="white" stroke-miterlimit="10"/>
</g>
<defs>
<clipPath id="clip0_203_6185">
<rect width="16.79" height="14.9" fill="white"/>
</clipPath>
</defs>
</svg>
