<svg width="16" height="16" viewBox="0 0 16 16" fill="none" xmlns="http://www.w3.org/2000/svg">
<g clip-path="url(#clip0_203_6332)">
<path d="M9.46094 5.45996L14.4609 10.46C14.586 10.5964 14.6554 10.7748 14.6554 10.96C14.6554 11.1451 14.586 11.3235 14.4609 11.46C14.3243 11.5843 14.1456 11.6522 13.9609 11.65C13.7759 11.6542 13.5965 11.5861 13.4609 11.46L8.46094 6.45996" stroke="#83899E" stroke-linecap="round" stroke-linejoin="round"/>
<path d="M7.99961 2.32031C7.71765 2.8917 7.34252 3.41214 6.88961 3.86031C6.44206 4.32196 5.92182 4.70707 5.34961 5.00031" stroke="#83899E" stroke-linecap="round" stroke-linejoin="round"/>
<path d="M10.3106 4.62012C9.73284 4.90061 9.20833 5.27961 8.76063 5.74012C8.30325 6.19052 7.92466 6.71446 7.64062 7.29012" stroke="#83899E" stroke-linecap="round" stroke-linejoin="round"/>
<path d="M11.9098 3.00044L9.65982 0.720441C9.59104 0.651202 9.50924 0.596253 9.41914 0.558755C9.32904 0.521258 9.23241 0.501953 9.13482 0.501953C9.03722 0.501953 8.94059 0.521258 8.85049 0.558755C8.76039 0.596253 8.67859 0.651202 8.60982 0.720441L8.07982 1.24044C8.01058 1.30922 7.95563 1.39101 7.91813 1.48112C7.88063 1.57122 7.86133 1.66785 7.86133 1.76544C7.86133 1.86303 7.88063 1.95966 7.91813 2.04977C7.95563 2.13987 8.01058 2.22166 8.07982 2.29044L10.3398 4.54044C10.4086 4.60968 10.4904 4.66463 10.5805 4.70213C10.6706 4.73962 10.7672 4.75893 10.8648 4.75893C10.9624 4.75893 11.059 4.73962 11.1491 4.70213C11.2392 4.66463 11.321 4.60968 11.3898 4.54044L11.9098 4.00044C12.0349 3.86397 12.1043 3.68557 12.1043 3.50044C12.1043 3.31532 12.0349 3.13691 11.9098 3.00044Z" fill="white" stroke="#83899E" stroke-linecap="round" stroke-linejoin="round"/>
<path d="M7.57018 7.30971L5.31018 5.05971C5.1737 4.93462 4.9953 4.86523 4.81018 4.86523C4.62505 4.86523 4.44665 4.93462 4.31018 5.05971L3.79018 5.57971C3.66509 5.71618 3.5957 5.89458 3.5957 6.07971C3.5957 6.26483 3.66509 6.44323 3.79018 6.57971L6.00018 8.88971C6.13665 9.01479 6.31505 9.08418 6.50018 9.08418C6.6853 9.08418 6.8637 9.01479 7.00018 8.88971L7.53018 8.35971C7.67078 8.22352 7.75341 8.03834 7.76086 7.84273C7.76832 7.64713 7.70001 7.4562 7.57018 7.30971Z" fill="white" stroke="#83899E" stroke-linecap="round" stroke-linejoin="round"/>
<path d="M1.50961 9.5602L2.99961 11.0402L6.33961 7.7002L8.19961 9.5502L4.84961 12.9002L6.32961 14.3802L0.599609 15.2902L1.50961 9.5602Z" fill="#B81E23"/>
<path d="M6.34 8.4L7.49 9.55L4.15 12.9L5.29 14L1.2 14.65L1.85 10.57L3 11.75L6.34 8.4ZM6.34 7L5.63 7.71L3 10.33L2.56 9.9L1.17 8.51L0.87 10.45L0.22 14.53L0 15.89L1.36 15.68L5.44 15L7.38 14.69L6 13.33L5.57 12.9L8.2 10.26L8.9 9.55L8.2 8.85L7.05 7.7L6.34 7Z" fill="white"/>
</g>
<defs>
<clipPath id="clip0_203_6332">
<rect width="15.18" height="15.89" fill="white"/>
</clipPath>
</defs>
</svg>
