<svg width="17" height="16" viewBox="0 0 17 16" fill="none" xmlns="http://www.w3.org/2000/svg">
<g clip-path="url(#clip0_203_6216)">
<path d="M7.28953 7.00008C7.05835 6.86398 6.86563 6.67126 6.72953 6.44008C6.59641 6.20494 6.52422 5.94024 6.51953 5.67008C6.5203 5.46074 6.56319 5.25369 6.64565 5.06127C6.72812 4.86886 6.84847 4.69501 6.99953 4.55008C7.29965 4.25078 7.70568 4.08189 8.12953 4.08008C8.54829 4.08289 8.94968 4.24775 9.24953 4.54008C9.53392 4.84425 9.69441 5.2437 9.69953 5.66008C9.69586 5.9247 9.63082 6.18486 9.50953 6.42008C9.38541 6.64937 9.21107 6.84765 8.99953 7.00008C8.92953 7.00008 8.39953 6.22008 8.61953 6.21008C8.68987 6.15235 8.74771 6.0809 8.78953 6.00008C8.83394 5.9062 8.8578 5.80392 8.85953 5.70008C8.85432 5.51261 8.77617 5.33457 8.64171 5.20384C8.50724 5.07311 8.32707 5.00001 8.13953 5.00008C7.95203 5.00266 7.77294 5.0783 7.64035 5.21089C7.50775 5.34349 7.43212 5.52258 7.42953 5.71008C7.42307 5.80934 7.4402 5.90871 7.47953 6.00008C7.51827 6.09969 7.57993 6.18876 7.65953 6.26008C7.87953 6.23008 7.35953 7.05008 7.28953 7.00008Z" fill="#83899E"/>
<path d="M11.9008 8.48998C12.2008 7.72998 12.6108 7.10998 13.4508 7.23998C13.6456 7.283 13.8289 7.36746 13.9881 7.48761C14.1474 7.60776 14.279 7.76079 14.3738 7.9363C14.4687 8.11181 14.5247 8.30569 14.538 8.50476C14.5512 8.70383 14.5215 8.90342 14.4508 9.08998C14.1208 10.73 12.5908 11.47 11.8008 12.75" stroke="#83899E" stroke-linecap="round" stroke-linejoin="round"/>
<path d="M4.57 12.5398C3.14 13.0798 1.96 11.5398 1.7 10.6898C1.3972 9.59559 0.99555 8.53121 0.5 7.50977H1.93C2.29 8.21977 2.23 8.21977 2.65 8.99977C2.73601 9.24872 2.90285 9.46173 3.12393 9.60489C3.34502 9.74806 3.60765 9.81313 3.87 9.78977" stroke="#83899E" stroke-linejoin="round"/>
<path d="M8.38985 6.23047H7.82985C6.97299 6.28039 6.14933 6.57928 5.45985 7.09047C4.50546 7.78893 3.86283 8.83364 3.66985 10.0005C3.47906 11.143 3.72926 12.3154 4.36985 13.2805C4.86266 14.0526 5.58221 14.6533 6.42985 15.0005C6.53161 15.0529 6.64557 15.0771 6.75985 15.0705H9.62985C9.75713 15.079 9.88448 15.0549 9.99985 15.0005C10.7476 14.6792 11.394 14.1607 11.8699 13.5005L11.9399 13.4105C11.9508 13.3781 11.9718 13.35 11.9999 13.3305V13.2505C12.4701 12.5162 12.72 11.6624 12.7199 10.7905C12.7297 10.0762 12.5685 9.36984 12.2499 8.73047C11.8815 8.0301 11.3413 7.43481 10.6799 7.00047C10.0148 6.5629 9.24493 6.31088 8.44985 6.27047L8.38985 6.23047ZM11.8599 10.7605C11.8714 11.4702 11.6693 12.167 11.2799 12.7605L11.1599 12.9405C10.7686 13.4707 10.2443 13.8881 9.63985 14.1505H6.76985C6.08593 13.8668 5.49892 13.3909 5.07985 12.7805C4.60715 12.0515 4.40528 11.1797 4.50945 10.3172C4.61361 9.45461 5.0172 8.65596 5.64985 8.06047H10.7099C11.0762 8.40467 11.3688 8.81974 11.5699 9.28047C11.7729 9.7405 11.8785 10.2376 11.8799 10.7405L11.8599 10.7605Z" fill="#83899E"/>
<path d="M10.3606 7.78031C9.77871 7.35131 9.08278 7.10426 8.36062 7.07031H7.86063C7.13835 7.10366 6.44225 7.35078 5.86063 7.78031L5.64062 8.00031H10.7006C10.5906 8.00031 10.4806 7.86031 10.3606 7.78031Z" fill="white"/>
<path d="M5 8.05957H11.41" stroke="#83899E" stroke-miterlimit="10"/>
<path d="M8.34961 6.33961L11.6896 2.98961L10.2096 1.50961L15.9396 0.599609L15.0296 6.32961L13.5496 4.84961L10.1996 8.19961L8.34961 6.33961Z" fill="#B81E23"/>
<path d="M15.3406 1.2L14.6906 5.29L13.5506 4.15L10.2006 7.49L9.05063 6.34L12.4006 3L11.2606 1.85L15.3406 1.2ZM16.5406 0L15.1806 0.22L11.1006 0.87L9.16062 1.17L10.5506 2.56L11.0006 3L8.35063 5.63L7.64062 6.34L8.35063 7.05L9.50063 8.2L10.2006 8.9L10.9106 8.2L13.5506 5.56L14.0006 6L15.3906 7.39L15.7006 5.45L16.3506 1.37L16.5406 0Z" fill="white"/>
</g>
<defs>
<clipPath id="clip0_203_6216">
<rect width="16.54" height="15.03" fill="white"/>
</clipPath>
</defs>
</svg>
