<svg width="16" height="15" viewBox="0 0 16 15" fill="none" xmlns="http://www.w3.org/2000/svg">
<g clip-path="url(#clip0_203_6246)">
<path d="M7.77 2.92C7.54166 2.78361 7.35225 2.59076 7.22 2.36C7.08378 2.12562 7.00816 1.86097 7 1.59C7.00003 1.38146 7.04161 1.17501 7.1223 0.982708C7.203 0.790409 7.3212 0.616114 7.47 0.47C7.61611 0.3212 7.79041 0.203 7.98271 0.122304C8.17501 0.0416067 8.38146 2.96489e-05 8.59 0V0C9.00876 0.00281189 9.41015 0.167672 9.71 0.46C9.95454 0.70023 10.1149 1.01306 10.1672 1.35185C10.2194 1.69064 10.1608 2.03725 10 2.34C9.87327 2.57366 9.69132 2.77277 9.47 2.92C9.4 2.92 8.87 2.14 9.1 2.13C9.17946 2.06257 9.24125 1.97675 9.28 1.88C9.32904 1.7878 9.35317 1.68439 9.35 1.58C9.35178 1.48662 9.33401 1.39391 9.29785 1.3078C9.26169 1.2217 9.20792 1.1441 9.14 1.08C9.0759 1.01208 8.9983 0.958315 8.9122 0.922151C8.82609 0.885986 8.73338 0.868223 8.64 0.87C8.54512 0.86805 8.45086 0.885693 8.3631 0.921826C8.27535 0.95796 8.196 1.01181 8.13 1.08C7.9966 1.21231 7.92108 1.39211 7.92 1.58C7.90004 1.68237 7.90004 1.78763 7.92 1.89C7.96575 1.98824 8.0303 2.07657 8.11 2.15C8.37 2.15 7.85 3 7.77 2.92Z" fill="#83899E"/>
<path d="M12.3805 4.41012C12.6905 3.64012 13.1005 3.03012 13.9305 3.16012C14.1253 3.20314 14.3086 3.2876 14.4678 3.40775C14.6271 3.52791 14.7586 3.68094 14.8535 3.85645C14.9484 4.03196 15.0044 4.22584 15.0176 4.4249C15.0309 4.62397 15.0012 4.82357 14.9305 5.01012C14.5605 6.65012 13.0005 7.39012 12.2305 8.67012" stroke="#83899E" stroke-linecap="round" stroke-linejoin="round"/>
<path d="M5.05 8.45992C3.62 8.99992 2.45 7.45992 2.19 6.59992C1.88684 5.50724 1.48865 4.44319 1 3.41992H2.42C2.77 4.13992 2.72 4.13992 3.13 4.91992C3.21925 5.1675 3.38806 5.3785 3.61 5.51992C3.83154 5.66574 4.09575 5.73268 4.36 5.70992" stroke="#83899E" stroke-linejoin="round"/>
<path d="M8.88013 2.15039H8.31013C7.45466 2.1991 6.63156 2.49431 5.94013 3.00039H5.89013C4.97238 3.70594 4.35807 4.73476 4.17228 5.87737C3.98649 7.01997 4.2432 8.19042 4.89013 9.15039C5.38778 9.91821 6.10583 10.5177 6.95013 10.8704C7.05371 10.9175 7.16634 10.9414 7.28013 10.9404H10.1501C10.2672 10.9422 10.3833 10.9183 10.4901 10.8704C11.2361 10.5461 11.8817 10.0282 12.3601 9.37039L12.4201 9.28039L12.4801 9.19039L12.5301 9.12039C13.0021 8.38741 13.249 7.53216 13.2401 6.66039C13.2413 5.49812 12.7937 4.38029 11.9907 3.54002C11.1877 2.69975 10.0913 2.20193 8.93013 2.15039H8.88013ZM12.3401 6.68039C12.3505 7.38996 12.1485 8.08643 11.7601 8.68039L11.6401 8.86039C11.251 9.3926 10.726 9.8105 10.1201 10.0704H7.26013C6.5131 9.77154 5.88614 9.23359 5.47724 8.54065C5.06835 7.8477 4.90057 7.0388 5.00013 6.24039C5.10923 5.38637 5.50812 4.59566 6.13013 4.00039H11.2001C11.5657 4.34532 11.8581 4.7602 12.0601 5.22039C12.2574 5.67876 12.3628 6.17142 12.3701 6.67039L12.3401 6.68039Z" fill="#83899E"/>
<path d="M10.8491 3.70023C10.2656 3.27439 9.57061 3.02768 8.84914 2.99023H8.34914C7.62768 3.02768 6.93272 3.27439 6.34914 3.70023L6.11914 4.00023H11.1791C11.077 3.89194 10.9667 3.79165 10.8491 3.70023Z" fill="white"/>
<path d="M5.44922 4H11.8492" stroke="#83899E" stroke-miterlimit="10"/>
<path d="M1.50961 8.45984L2.98961 9.93984L6.33961 6.58984L8.19961 8.44984L4.84961 11.7998L6.32961 13.2798L0.599609 14.1898L1.50961 8.45984Z" fill="#B81E23"/>
<path d="M6.34 7.29965L7.49 8.44965L4.15 11.7996L5.29 12.9396L1.2 13.5896L1.85 9.49965L3 10.6496L6.34 7.29965ZM6.34 5.88965L5.63 6.58965L3 9.22965L2.56 8.79965L1.17 7.40965L0.87 9.34965L0.22 13.4296L0 14.7896L1.36 14.5696L5.44 13.9296L7.38 13.6196L6 12.2296L5.57 11.7996L8.2 9.15965L8.9 8.44965L8.2 7.73965L7.05 6.58965L6.34 5.88965Z" fill="white"/>
</g>
<defs>
<clipPath id="clip0_203_6246">
<rect width="15.44" height="14.79" fill="white"/>
</clipPath>
</defs>
</svg>
