<svg width="24" height="24" viewBox="0 0 24 24" fill="none" xmlns="http://www.w3.org/2000/svg">
<path fill-rule="evenodd" clip-rule="evenodd" d="M7.08642 13.069L5.384 11.707C5.13517 12.4253 5 13.1966 5 13.9994C5 17.8654 8.13401 20.9994 12 20.9994C15.866 20.9994 19 17.8654 19 13.9994C19 13.1966 18.8648 12.4253 18.616 11.707L16.9136 13.069C16.9703 13.3705 17 13.6815 17 13.9994C17 16.7609 14.7614 18.9994 12 18.9994C9.23858 18.9994 7 16.7609 7 13.9994C7 13.6815 7.02968 13.3705 7.08642 13.069Z" fill="#333333"/>
<path d="M7 9L12 13M12 13L17 9M12 13L12 4" stroke="#B81C22" stroke-width="2" stroke-linecap="round" stroke-linejoin="round"/>
</svg>
