<svg width="15" height="15" viewBox="0 0 15 15" fill="none" xmlns="http://www.w3.org/2000/svg">
<path d="M13.9148 13.4259L10.3262 9.60938C11.2317 8.52539 11.6845 7.27539 11.6845 5.85938C11.6845 4.79492 11.4241 3.81348 10.9031 2.91504C10.3822 2.0166 9.67137 1.30615 8.77069 0.783691C7.87001 0.26123 6.89143 0 5.83496 0C4.77848 0 3.80234 0.26123 2.90652 0.783691C2.01071 1.30615 1.30234 2.0166 0.781402 2.91504C0.260467 3.81348 0 4.79492 0 5.85938C0 6.92383 0.260467 7.90527 0.781402 8.80371C1.30234 9.70215 2.01071 10.4126 2.90652 10.9351C3.80234 11.4575 4.78092 11.7188 5.84226 11.7188C7.29309 11.7188 8.56865 11.2402 9.66894 10.2832L13.2429 14.085C13.3403 14.1827 13.4523 14.2315 13.5789 14.2315C13.7055 14.2315 13.815 14.1851 13.9075 14.0924C14 13.9996 14.0463 13.8873 14.0463 13.7555C14.0463 13.6236 14.0024 13.5138 13.9148 13.4259ZM5.84226 10.7959C4.94645 10.7959 4.12123 10.5737 3.3666 10.1294C2.61198 9.68506 2.01558 9.08447 1.57741 8.32764C1.13924 7.5708 0.920156 6.74805 0.920156 5.85938C0.920156 4.9707 1.13924 4.14795 1.57741 3.39111C2.01558 2.63428 2.61198 2.03369 3.3666 1.58936C4.12123 1.14502 4.94401 0.922852 5.83496 0.922852C6.7259 0.922852 7.54869 1.14502 8.30331 1.58936C9.05794 2.03369 9.65433 2.63428 10.0925 3.39111C10.5307 4.14795 10.7498 4.9707 10.7498 5.85938C10.7498 6.24023 10.7059 6.61621 10.6183 6.98731C10.5307 7.3584 10.4065 7.70508 10.2459 8.02734C10.0852 8.34961 9.89289 8.65479 9.66894 8.94287C9.44499 9.23096 9.19182 9.4873 8.90945 9.71191C8.62707 9.93652 8.32522 10.1294 8.00389 10.2905C7.68257 10.4517 7.3369 10.5762 6.96689 10.6641C6.59688 10.752 6.22201 10.7959 5.84226 10.7959Z" fill="black" fill-opacity="0.5"/>
</svg>
