<svg width="14" height="20" viewBox="0 0 14 20" fill="none" xmlns="http://www.w3.org/2000/svg">
<path d="M8.51 18.5H2.36C1.99931 18.5 1.65338 18.3567 1.39833 18.1017C1.14329 17.8466 1 17.5007 1 17.14V2.36C1 1.99931 1.14329 1.65338 1.39833 1.39833C1.65338 1.14329 1.99931 1 2.36 1H11.25C11.6107 1 11.9566 1.14329 12.2117 1.39833C12.4667 1.65338 12.61 1.99931 12.61 2.36V12.85C12.6053 13.1044 12.5328 13.353 12.4 13.57L9.7 17.86C9.57536 18.0618 9.39974 18.2272 9.19083 18.3396C8.98192 18.4519 8.7471 18.5073 8.51 18.5Z" stroke="#B81C22" stroke-width="1.5" stroke-linecap="round" stroke-linejoin="round"/>
<path d="M9.32013 18.1693L8.25013 15.3193C8.20614 15.1874 8.19012 15.0478 8.2031 14.9094C8.21608 14.771 8.25778 14.6368 8.32553 14.5155C8.39328 14.3941 8.4856 14.2881 8.59659 14.2044C8.70758 14.1207 8.8348 14.0611 8.97013 14.0293L12.4701 13.0293" stroke="#B81C22" stroke-width="1.5" stroke-linecap="round" stroke-linejoin="round"/>
<line x1="4" y1="5.75" x2="9" y2="5.75" stroke="#B81C22"/>
<line x1="4" y1="8.75" x2="9" y2="8.75" stroke="#B81C22"/>
</svg>
