<?xml version="1.0" encoding="utf-8"?>
<!-- Generator: Adobe Illustrator 26.3.0, SVG Export Plug-In . SVG Version: 6.00 Build 0)  -->
<svg version="1.1" baseProfile="basic" id="Layer_1"
	 xmlns="http://www.w3.org/2000/svg" xmlns:xlink="http://www.w3.org/1999/xlink" x="0px" y="0px" viewBox="0 0 24 24"
	 xml:space="preserve">
<path fill="#333333" d="M12,4L12,4l0.1,0c4.4,0.1,7.9,3.7,7.9,8.1c0,4.4-3.6,7.9-8,7.9c-4.4,0-8-3.6-8-8l0-0.2C4.1,7.5,7.7,4,12,4
	 M12,2C6.6,2,2.1,6.3,2,11.8V12c0,5.5,4.5,10,10,10c5.5,0,10-4.4,10-9.9c0-5.5-4.4-10-9.9-10.1C12.1,2,12,2,12,2L12,2z"/>
<g>
	<rect x="11.1" y="16" fill="#A72E25" width="2" height="2"/>
	<path fill="#A72E25" d="M13.1,15h-2c0-1.3,0.6-2.5,1.8-3.2c0.7-0.5,1.2-0.9,1.2-1.8c0-1.1-0.9-2-2-2c-1.1,0-2,0.9-2,2h-2V9.9
		c0-1.4,0.8-2.7,2-3.4c1.2-0.7,2.8-0.7,4,0c1.2,0.7,2,2.1,2,3.5c-0.1,1.1-0.7,2.1-1.6,2.6C13.7,13.2,13.2,14,13.1,15z"/>
</g>
</svg>
