<svg width="22" height="23" viewBox="0 0 22 23" fill="none" xmlns="http://www.w3.org/2000/svg">
<path d="M12.9288 9.15186L20.694 16.917C20.8907 17.1291 21 17.4077 21 17.697C21 17.9863 20.8907 18.2649 20.694 18.477C20.4826 18.6704 20.2064 18.7777 19.9198 18.7777C19.6332 18.7777 19.357 18.6704 19.1456 18.477L11.4262 10.7118" stroke="#333333" stroke-width="1.2" stroke-linecap="round" stroke-linejoin="round"/>
<path d="M10.6348 4.28833C10.2114 5.17299 9.64128 5.97963 8.94871 6.67409C8.25744 7.38559 7.45081 7.97505 6.56295 8.41753" stroke="#333333" stroke-width="1.2" stroke-linecap="round" stroke-linejoin="round"/>
<path d="M14.2364 7.84448C13.3485 8.28696 12.5419 8.87642 11.8506 9.58792C11.1417 10.2788 10.5559 11.0856 10.1186 11.9737" stroke="#333333" stroke-width="1.2" stroke-linecap="round" stroke-linejoin="round"/>
<path d="M1 21.6539V20.0137C1 19.7095 1.12084 19.4178 1.33595 19.2026C1.55105 18.9875 1.8428 18.8667 2.147 18.8667H11.2542C11.5584 18.8667 11.8501 18.9875 12.0652 19.2026C12.2803 19.4178 12.4012 19.7095 12.4012 20.0137V21.6539" stroke="#B81C22" stroke-width="1.2" stroke-linecap="square" stroke-linejoin="round"/>
<path d="M16.7191 5.29857L13.2316 1.81105C12.7837 1.36312 12.0575 1.36312 11.6095 1.81105L10.7985 2.6221C10.3505 3.07003 10.3505 3.79627 10.7985 4.24421L14.286 7.73173C14.7339 8.17966 15.4602 8.17966 15.9081 7.73173L16.7191 6.92068C17.1671 6.47275 17.1671 5.74651 16.7191 5.29857Z" fill="white" stroke="#333333" stroke-width="1.2" stroke-linecap="round" stroke-linejoin="round"/>
<path d="M9.99746 12.0163L6.50994 8.52883C6.06201 8.08089 5.33577 8.08089 4.88784 8.52882L4.07678 9.33988C3.62885 9.78781 3.62885 10.514 4.07678 10.962L7.56431 14.4495C8.01224 14.8974 8.73848 14.8974 9.18641 14.4495L9.99746 13.6385C10.4454 13.1905 10.4454 12.4643 9.99746 12.0163Z" fill="white" stroke="#333333" stroke-width="1.2" stroke-linecap="round" stroke-linejoin="round"/>
</svg>
