<svg width="25" height="19" viewBox="0 0 25 19" fill="none" xmlns="http://www.w3.org/2000/svg">
<path d="M12.1915 4.81661C11.8104 4.58863 11.4934 4.26751 11.2704 3.88342C11.0473 3.49933 10.9256 3.06486 10.9165 2.6208C10.9165 1.92572 11.1927 1.25911 11.6842 0.767615C12.1757 0.276119 12.8423 2.16115e-09 13.5374 2.16115e-09V2.16115e-09C14.2284 -2.80403e-05 14.8914 0.272848 15.3822 0.759249C15.8731 1.24565 16.1519 1.90621 16.1582 2.59719C16.158 3.03385 16.0502 3.46374 15.8443 3.8488C15.6384 4.23386 15.3407 4.56222 14.9776 4.8048C14.8596 4.87564 13.986 3.52982 14.3519 3.50621C14.4837 3.39649 14.5899 3.25939 14.6633 3.10445C14.7367 2.94951 14.7755 2.78044 14.7769 2.609C14.7769 2.2959 14.6525 1.99562 14.4311 1.77423C14.2098 1.55283 13.9095 1.42846 13.5964 1.42846C13.2833 1.42846 12.983 1.55283 12.7616 1.77423C12.5402 1.99562 12.4158 2.2959 12.4158 2.609C12.4077 2.7836 12.4384 2.95783 12.5058 3.11911C12.5731 3.28039 12.6755 3.42471 12.8054 3.54162C13.1714 3.54162 12.3096 4.88744 12.1915 4.81661Z" fill="#B81C22"/>
<path d="M13.561 4.22571C14.4933 4.22571 15.2491 3.46989 15.2491 2.53754C15.2491 1.60519 14.4933 0.849365 13.561 0.849365C12.6286 0.849365 11.8728 1.60519 11.8728 2.53754C11.8728 3.46989 12.6286 4.22571 13.561 4.22571Z" fill="#B81C22"/>
<path d="M19.7824 7.27047C20.29 6.00729 20.963 4.99203 22.3442 5.20452C23.7254 5.41702 24.2331 6.9045 23.9025 8.26213C23.3713 10.9538 20.8449 12.1815 19.5345 14.2829" stroke="#333333" stroke-width="1.2" stroke-linecap="round" stroke-linejoin="round"/>
<path d="M7.70548 13.943C5.34439 14.8284 3.4083 12.2666 2.98331 10.8854C2.47549 9.08398 1.81188 7.33017 1 5.6438H3.36108C3.95135 6.82434 3.85691 6.82434 4.54162 8.11113C4.68654 8.52075 4.96348 8.8706 5.3289 9.10567C5.69433 9.34073 6.12751 9.44769 6.56035 9.40973" stroke="#333333" stroke-width="1.2" stroke-linejoin="round"/>
<path d="M14.0096 3.54175H13.0769C11.666 3.63171 10.3102 4.12325 9.16935 4.9584H9.08671C7.56454 6.11352 6.54005 7.80555 6.222 9.68973C5.90395 11.5739 6.31626 13.5085 7.37492 15.0992C8.19162 16.3693 9.37834 17.3583 10.7749 17.9325C10.9439 18.0146 11.1301 18.055 11.3179 18.0506H16.0401C16.2308 18.0466 16.4191 18.0066 16.595 17.9325C17.8261 17.4037 18.8909 16.551 19.6762 15.4652L19.7824 15.3117C19.81 15.2591 19.8459 15.2113 19.8887 15.1701L19.9595 15.052C20.7346 13.8397 21.1444 12.4299 21.14 10.991C21.153 9.81574 20.8859 8.65432 20.3609 7.60281C19.7632 6.43867 18.8711 5.45127 17.7734 4.73881C16.6757 4.02635 15.4107 3.61365 14.104 3.54175H14.0096ZM19.7234 11.0028C19.7351 12.1745 19.4026 13.3238 18.7671 14.3083L18.5665 14.6034C17.9245 15.4793 17.0606 16.168 16.0637 16.5985H11.3415C10.2062 16.1402 9.23525 15.3503 8.55547 14.3319C7.77182 13.1344 7.43571 11.6989 7.6063 10.278C7.7769 8.85707 8.44326 7.54189 9.48809 6.56393H17.8345C18.4387 7.12778 18.9212 7.80932 19.2521 8.56661C19.583 9.32391 19.7555 10.1409 19.7588 10.9674L19.7234 11.0028Z" fill="#333333"/>
<path d="M17.2561 6.10364C16.3105 5.4051 15.183 4.9951 14.0096 4.9231H13.1832C12.0145 5.00061 10.8923 5.41017 9.9485 6.10364C9.77887 6.23558 9.61725 6.37749 9.46448 6.52863H17.8109C17.6359 6.37442 17.4505 6.23242 17.2561 6.10364Z" fill="white"/>
<path d="M8.35477 6.56372H18.9088" stroke="#333333" stroke-miterlimit="10"/>
</svg>
