<svg width="24" height="24" viewBox="0 0 24 24" fill="none" xmlns="http://www.w3.org/2000/svg">
<path d="M14.5655 13.343C14.8779 13.0306 14.8779 12.5241 14.5655 12.2117C14.253 11.8992 13.7465 11.8992 13.4341 12.2117L14.5655 13.343ZM10.8887 15.8885L10.323 15.3228L9.7573 15.8885L10.323 16.4541L10.8887 15.8885ZM13.4341 19.5653C13.7465 19.8777 14.253 19.8777 14.5655 19.5653C14.8779 19.2528 14.8779 18.7463 14.5655 18.4339L13.4341 19.5653ZM13.4341 12.2117L10.323 15.3228L11.4544 16.4541L14.5655 13.343L13.4341 12.2117ZM10.323 16.4541L13.4341 19.5653L14.5655 18.4339L11.4544 15.3228L10.323 16.4541Z" fill="#8B95A1"/>
<path d="M7.7292 13.1667C7.12995 12.1287 6.88992 10.9221 7.04636 9.7338C7.2028 8.54555 7.74695 7.44211 8.59442 6.59464C9.4419 5.74717 10.5453 5.20301 11.7336 5.04658C12.9218 4.89014 14.1285 5.13016 15.1664 5.72942C16.2044 6.32867 17.0156 7.25367 17.4742 8.36095C17.9329 9.46822 18.0134 10.6959 17.7032 11.8536C17.393 13.0112 16.7094 14.0342 15.7586 14.7638C14.8078 15.4934 13.6427 15.8889 12.4442 15.8889" stroke="#8B95A1" stroke-width="1.6" stroke-linecap="round"/>
</svg>
