<svg width="24" height="24" viewBox="0 0 24 24" fill="none" xmlns="http://www.w3.org/2000/svg">
<path d="M12 21.5C11.4696 21.5 10.9609 21.2893 10.5858 20.9142C10.2107 20.5391 10 20.0304 10 19.5H14C14 20.0304 13.7893 20.5391 13.4142 20.9142C13.0391 21.2893 12.5304 21.5 12 21.5ZM20 18.5H4V17.5L6 15.5V10.5C5.96935 9.0579 6.38115 7.64102 7.18 6.44C7.96434 5.29722 9.14921 4.49064 10.5 4.17999V3.5C10.5 3.10218 10.658 2.72064 10.9393 2.43933C11.2206 2.15803 11.6022 2 12 2C12.3978 2 12.7794 2.15803 13.0607 2.43933C13.342 2.72064 13.5 3.10218 13.5 3.5V4.17999C14.8525 4.49288 16.0398 5.29868 16.83 6.44C17.6201 7.64457 18.0279 9.0597 18 10.5V15.5L20 17.5V18.5ZM12 6C11.4438 5.98556 10.8915 6.09675 10.3842 6.32529C9.87692 6.55383 9.42771 6.89384 9.07 7.32001C8.34946 8.22065 7.97047 9.34698 8 10.5V16.5H16V10.5C16.0295 9.34698 15.6505 8.22065 14.93 7.32001C14.5723 6.89384 14.1231 6.55383 13.6158 6.32529C13.1085 6.09675 12.5562 5.98556 12 6Z" fill="#333333"/>
</svg>
