<svg width="62" height="62" viewBox="0 0 62 62" fill="none" xmlns="http://www.w3.org/2000/svg">
<g filter="url(#filter0_b_19_564)">
<g filter="url(#filter1_b_19_564)">
<circle cx="31" cy="31" r="31" fill="white" fill-opacity="0.04"/>
</g>
<g filter="url(#filter2_bi_19_564)">
<circle cx="31" cy="31" r="23" fill="white" fill-opacity="0.15"/>
</g>
<g filter="url(#filter3_b_19_564)">
<path d="M31.7401 19.3001L32.1287 19.7572C32.1331 19.7535 32.1375 19.7497 32.1418 19.7458L31.7401 19.3001ZM35.5201 19.4201L35.993 19.0508C35.9794 19.0333 35.9647 19.0166 35.9492 19.0007L35.5201 19.4201ZM35.0001 23.1101L34.6476 22.6245C34.6348 22.6338 34.6223 22.6437 34.6103 22.654L35.0001 23.1101ZM27.9101 19.7901L27.5161 20.2426C27.5227 20.2484 27.5295 20.254 27.5363 20.2594L27.9101 19.7901ZM24.3901 19.9001L23.9686 19.473C23.9441 19.4973 23.9217 19.5235 23.9017 19.5516L24.3901 19.9001ZM25.0001 23.2701L25.3394 22.7752L25.3354 22.7725L25.0001 23.2701ZM39.0001 30.8501C39.0001 31.1814 39.2687 31.4501 39.6001 31.4501C39.9315 31.4501 40.2001 31.1814 40.2001 30.8501H39.0001ZM40.2001 28.5201C40.2001 28.1887 39.9315 27.9201 39.6001 27.9201C39.2687 27.9201 39.0001 28.1887 39.0001 28.5201H40.2001ZM20.3701 28.5201C20.3701 28.1887 20.1015 27.9201 19.7701 27.9201C19.4387 27.9201 19.1701 28.1887 19.1701 28.5201H20.3701ZM19.7701 40.1801H19.1701C19.1701 40.5114 19.4387 40.7801 19.7701 40.7801V40.1801ZM25.0201 40.7801C25.3515 40.7801 25.6201 40.5114 25.6201 40.1801C25.6201 39.8487 25.3515 39.5801 25.0201 39.5801V40.7801ZM31.4301 27.9201C31.0987 27.9201 30.8301 28.1887 30.8301 28.5201C30.8301 28.8514 31.0987 29.1201 31.4301 29.1201V27.9201ZM40.7701 28.5201V29.1201C41.1015 29.1201 41.3701 28.8514 41.3701 28.5201H40.7701ZM40.7701 24.4301H41.3701C41.3701 24.0987 41.1015 23.8301 40.7701 23.8301V24.4301ZM18.6001 24.4301V23.8301C18.2687 23.8301 18.0001 24.0987 18.0001 24.4301H18.6001ZM18.6001 28.5201H18.0001C18.0001 28.8514 18.2687 29.1201 18.6001 29.1201V28.5201ZM27.9301 29.1201C28.2615 29.1201 28.5301 28.8514 28.5301 28.5201C28.5301 28.1887 28.2615 27.9201 27.9301 27.9201V29.1201ZM27.3301 30.8501C27.3301 31.1814 27.5987 31.4501 27.9301 31.4501C28.2615 31.4501 28.5301 31.1814 28.5301 30.8501H27.3301ZM27.9301 24.4301V23.8301H27.3301V24.4301H27.9301ZM31.4301 24.4301H32.0301V23.8301H31.4301V24.4301ZM30.8301 30.8501C30.8301 31.1814 31.0987 31.4501 31.4301 31.4501C31.7615 31.4501 32.0301 31.1814 32.0301 30.8501H30.8301ZM28.2201 33.1801L28.2201 33.7801H28.2201V33.1801ZM43.3901 33.1801V33.7801V33.1801ZM44.2701 43.3901H43.6701V43.3901L44.2701 43.3901ZM43.4001 44.2701V44.8701L43.4069 44.87L43.4001 44.2701ZM28.2201 44.2701V44.8701V44.2701ZM27.3501 34.0601H27.9501L27.9501 34.0532L27.3501 34.0601ZM29.6801 40.7501C29.3487 40.7501 29.0801 41.0187 29.0801 41.3501C29.0801 41.6814 29.3487 41.9501 29.6801 41.9501V40.7501ZM30.8501 41.9501C31.1815 41.9501 31.4501 41.6814 31.4501 41.3501C31.4501 41.0187 31.1815 40.7501 30.8501 40.7501V41.9501ZM33.1801 40.7501C32.8487 40.7501 32.5801 41.0187 32.5801 41.3501C32.5801 41.6814 32.8487 41.9501 33.1801 41.9501V40.7501ZM34.3501 41.9501C34.6815 41.9501 34.9501 41.6814 34.9501 41.3501C34.9501 41.0187 34.6815 40.7501 34.3501 40.7501V41.9501ZM36.6801 40.7501C36.3487 40.7501 36.0801 41.0187 36.0801 41.3501C36.0801 41.6814 36.3487 41.9501 36.6801 41.9501V40.7501ZM37.8501 41.9501C38.1815 41.9501 38.4501 41.6814 38.4501 41.3501C38.4501 41.0187 38.1815 40.7501 37.8501 40.7501V41.9501ZM40.1801 40.7501C39.8487 40.7501 39.5801 41.0187 39.5801 41.3501C39.5801 41.6814 39.8487 41.9501 40.1801 41.9501V40.7501ZM41.3501 41.9501C41.6815 41.9501 41.9501 41.6814 41.9501 41.3501C41.9501 41.0187 41.6815 40.7501 41.3501 40.7501V41.9501ZM33.4801 35.5201L33.5297 34.9221C33.5137 34.9208 33.4976 34.9201 33.4815 34.9201L33.4801 35.5201ZM32.6001 35.8101L32.2385 36.2888C32.451 36.4494 32.7441 36.4506 32.9579 36.2917L32.6001 35.8101ZM30.2601 36.9751H30.8601H30.2601ZM32.6001 38.1401L32.9579 37.6584C32.7441 37.4996 32.451 37.5007 32.2385 37.6613L32.6001 38.1401ZM33.4801 38.4301L33.4815 39.0301C33.4976 39.03 33.5137 39.0294 33.5297 39.028L33.4801 38.4301ZM29.6801 24.4301C30.2785 24.4733 30.2785 24.4734 30.2785 24.4735C30.2785 24.4735 30.2785 24.4736 30.2785 24.4737C30.2785 24.4738 30.2785 24.4738 30.2785 24.4737C30.2785 24.4737 30.2785 24.4734 30.2786 24.4729C30.2786 24.4719 30.2788 24.4701 30.279 24.4674C30.2794 24.4621 30.2801 24.4534 30.2812 24.4417C30.2832 24.4181 30.2866 24.3821 30.2915 24.3349C30.3014 24.2405 30.3176 24.1019 30.3426 23.9299C30.3927 23.5851 30.4773 23.1109 30.615 22.5929C30.8978 21.5285 31.3744 20.3984 32.1287 19.7572L31.3515 18.8429C30.3058 19.7318 29.7523 21.1667 29.4552 22.2847C29.3029 22.858 29.21 23.3794 29.1551 23.7574C29.1276 23.9469 29.1094 24.1014 29.0981 24.2099C29.0924 24.2641 29.0884 24.3069 29.0857 24.3369C29.0844 24.3519 29.0835 24.3636 29.0828 24.372C29.0825 24.3762 29.0822 24.3796 29.082 24.382C29.0819 24.3833 29.0818 24.3843 29.0818 24.3851C29.0818 24.3855 29.0817 24.3859 29.0817 24.3861C29.0817 24.3863 29.0817 24.3865 29.0817 24.3865C29.0817 24.3867 29.0817 24.3869 29.6801 24.4301ZM32.1418 19.7458C32.5503 19.3776 33.0855 19.1818 33.6352 19.1992L33.6733 17.9998C32.8139 17.9725 31.9772 18.2787 31.3384 18.8543L32.1418 19.7458ZM33.6352 19.1992C34.1849 19.2167 34.7066 19.4461 35.091 19.8394L35.9492 19.0007C35.3482 18.3858 34.5327 18.0271 33.6733 17.9998L33.6352 19.1992ZM35.0472 19.7893C35.2116 19.9999 35.332 20.2415 35.401 20.4996L36.5603 20.1894C36.4495 19.7757 36.2566 19.3884 35.993 19.0508L35.0472 19.7893ZM35.401 20.4996C35.4701 20.7577 35.4865 21.0271 35.4492 21.2917L36.6375 21.4592C36.6972 21.035 36.671 20.6032 36.5603 20.1894L35.401 20.4996ZM35.4492 21.2917C35.4119 21.5563 35.3217 21.8107 35.184 22.0397L36.2124 22.6581C36.4331 22.2911 36.5777 21.8833 36.6375 21.4592L35.4492 21.2917ZM35.184 22.0397C35.0463 22.2686 34.8639 22.4675 34.6476 22.6245L35.3526 23.5956C35.6992 23.344 35.9916 23.0252 36.2124 22.6581L35.184 22.0397ZM34.6103 22.654C33.8539 23.3004 32.6722 23.6133 31.5942 23.7485C31.0688 23.8144 30.5949 23.835 30.2526 23.839C30.0818 23.841 29.9448 23.8389 29.8518 23.8363C29.8053 23.8351 29.7698 23.8337 29.7467 23.8326C29.7352 23.8321 29.7267 23.8317 29.7215 23.8314C29.7189 23.8313 29.7171 23.8312 29.7161 23.8312C29.7156 23.8311 29.7153 23.8311 29.7153 23.8311C29.7153 23.8311 29.7153 23.8311 29.7153 23.8311C29.7154 23.8311 29.7155 23.8311 29.7155 23.8311C29.7156 23.8311 29.7157 23.8311 29.6801 24.4301C29.6445 25.029 29.6446 25.029 29.6448 25.029C29.6448 25.029 29.645 25.0291 29.6452 25.0291C29.6455 25.0291 29.6458 25.0291 29.6462 25.0291C29.647 25.0292 29.648 25.0292 29.6492 25.0293C29.6517 25.0294 29.655 25.0296 29.6591 25.0298C29.6673 25.0303 29.6789 25.0308 29.6936 25.0315C29.7231 25.0328 29.7652 25.0344 29.8188 25.0359C29.9258 25.0388 30.0785 25.0412 30.2667 25.0389C30.6421 25.0345 31.1627 25.012 31.7435 24.9392C32.878 24.7969 34.3562 24.4497 35.3899 23.5662L34.6103 22.654ZM29.6801 24.4301C30.2798 24.412 30.2798 24.4118 30.2798 24.4116C30.2798 24.4116 30.2798 24.4114 30.2798 24.4112C30.2798 24.4109 30.2798 24.4106 30.2798 24.4102C30.2797 24.4094 30.2797 24.4084 30.2797 24.4072C30.2796 24.4048 30.2795 24.4017 30.2793 24.3977C30.279 24.3898 30.2786 24.3787 30.2779 24.3648C30.2766 24.3368 30.2745 24.297 30.2713 24.2467C30.2648 24.1461 30.2537 24.0031 30.235 23.8282C30.1976 23.4794 30.1294 22.9985 30.0054 22.4714C29.765 21.4495 29.2846 20.1177 28.2839 19.3207L27.5363 20.2594C28.2056 20.7925 28.6102 21.7807 28.8373 22.7462C28.9471 23.2129 29.0082 23.6427 29.0418 23.956C29.0585 24.1122 29.0683 24.2382 29.0738 24.3238C29.0765 24.3666 29.0782 24.3992 29.0792 24.4204C29.0797 24.431 29.08 24.4387 29.0802 24.4434C29.0803 24.4457 29.0803 24.4473 29.0804 24.4481C29.0804 24.4485 29.0804 24.4487 29.0804 24.4488C29.0804 24.4488 29.0804 24.4487 29.0804 24.4486C29.0804 24.4486 29.0804 24.4485 29.0804 24.4484C29.0804 24.4483 29.0804 24.4482 29.6801 24.4301ZM28.3041 19.3375C27.6975 18.8094 26.9137 18.5299 26.1098 18.555L26.1473 19.7545C26.6488 19.7388 27.1377 19.9131 27.5161 20.2426L28.3041 19.3375ZM26.1098 18.555C25.3059 18.5802 24.5411 18.908 23.9686 19.473L24.8116 20.3271C25.1687 19.9747 25.6458 19.7701 26.1473 19.7545L26.1098 18.555ZM23.9017 19.5516C23.6697 19.8767 23.5053 20.245 23.418 20.6347L24.589 20.897C24.6412 20.6636 24.7397 20.4432 24.8785 20.2485L23.9017 19.5516ZM23.418 20.6347C23.3307 21.0244 23.3224 21.4277 23.3935 21.8207L24.5743 21.6069C24.5318 21.3717 24.5367 21.1303 24.589 20.897L23.418 20.6347ZM23.3935 21.8207C23.4647 22.2137 23.6138 22.5884 23.8321 22.9228L24.8369 22.2667C24.7062 22.0665 24.6169 21.8422 24.5743 21.6069L23.3935 21.8207ZM23.8321 22.9228C24.0505 23.2572 24.3336 23.5445 24.6648 23.7676L25.3354 22.7725C25.1371 22.6389 24.9676 22.4669 24.8369 22.2667L23.8321 22.9228ZM24.6608 23.7649C26.1492 24.7853 27.9563 25.2333 29.749 25.0261L29.6112 23.834C28.1062 24.008 26.589 23.6319 25.3394 22.7752L24.6608 23.7649ZM40.2001 30.8501V28.5201H39.0001V30.8501H40.2001ZM19.1701 28.5201V40.1801H20.3701V28.5201H19.1701ZM19.7701 40.7801H25.0201V39.5801H19.7701V40.7801ZM31.4301 29.1201H40.7701V27.9201H31.4301V29.1201ZM41.3701 28.5201V24.4301H40.1701V28.5201H41.3701ZM40.7701 23.8301H18.6001V25.0301H40.7701V23.8301ZM18.0001 24.4301V28.5201H19.2001V24.4301H18.0001ZM18.6001 29.1201H27.9301V27.9201H18.6001V29.1201ZM28.5301 30.8501V24.4301H27.3301V30.8501H28.5301ZM27.9301 25.0301H31.4301V23.8301H27.9301V25.0301ZM30.8301 24.4301V30.8501H32.0301V24.4301H30.8301ZM28.2201 33.7801H43.3901V32.5801H28.2201V33.7801ZM43.3901 33.7801C43.4644 33.7801 43.5356 33.8096 43.5881 33.8621L44.4366 33.0136C44.1591 32.736 43.7826 32.5801 43.3901 32.5801V33.7801ZM43.5881 33.8621C43.6406 33.9146 43.6701 33.9858 43.6701 34.0601H44.8701C44.8701 33.6676 44.7142 33.2911 44.4366 33.0136L43.5881 33.8621ZM43.6701 34.0601V43.3901H44.8701V34.0601H43.6701ZM43.6701 43.3901C43.6701 43.4638 43.641 43.5346 43.5892 43.587L44.4426 44.4307C44.7165 44.1536 44.8701 43.7797 44.8701 43.39L43.6701 43.3901ZM43.5892 43.587C43.5374 43.6394 43.467 43.6693 43.3933 43.6701L43.4069 44.87C43.7965 44.8656 44.1687 44.7077 44.4426 44.4307L43.5892 43.587ZM43.4001 43.6701H28.2201V44.8701H43.4001V43.6701ZM28.2201 43.6701C28.1485 43.6701 28.0798 43.6416 28.0292 43.591L27.1807 44.4395C27.4563 44.7152 27.8302 44.8701 28.2201 44.8701V43.6701ZM28.0292 43.591C27.9785 43.5404 27.9501 43.4717 27.9501 43.4001H26.7501C26.7501 43.7899 26.905 44.1638 27.1807 44.4395L28.0292 43.591ZM27.9501 43.4001V34.0601H26.7501V43.4001H27.9501ZM27.9501 34.0532C27.9496 34.0175 27.9563 33.982 27.9697 33.9489L26.8571 33.4992C26.7843 33.6795 26.7479 33.8725 26.7501 34.067L27.9501 34.0532ZM27.9697 33.9489C27.9831 33.9158 28.0029 33.8857 28.028 33.8603L27.1747 33.0166C27.0379 33.1549 26.93 33.3189 26.8571 33.4992L27.9697 33.9489ZM28.028 33.8603C28.0531 33.8349 28.083 33.8147 28.116 33.8009L27.6537 32.6936C27.4742 32.7685 27.3114 32.8783 27.1747 33.0166L28.028 33.8603ZM28.116 33.8009C28.149 33.7872 28.1843 33.7801 28.2201 33.7801L28.2201 32.5801C28.0257 32.5801 27.8331 32.6186 27.6537 32.6936L28.116 33.8009ZM29.6801 41.9501H30.8501V40.7501H29.6801V41.9501ZM33.1801 41.9501H34.3501V40.7501H33.1801V41.9501ZM36.6801 41.9501H37.8501V40.7501H36.6801V41.9501ZM40.1801 41.9501H41.3501V40.7501H40.1801V41.9501ZM33.4815 34.9201C33.0352 34.9191 32.6005 35.0623 32.2423 35.3284L32.9579 36.2917C33.1085 36.1798 33.2912 36.1196 33.4787 36.1201L33.4815 34.9201ZM32.9617 35.3313C32.656 35.1004 32.2919 34.9593 31.9104 34.9239L31.7995 36.1188C31.9588 36.1335 32.1108 36.1924 32.2385 36.2888L32.9617 35.3313ZM31.9104 34.9239C31.5288 34.8885 31.145 34.9602 30.802 35.131L31.3368 36.2052C31.48 36.1339 31.6403 36.104 31.7995 36.1188L31.9104 34.9239ZM30.802 35.131C30.459 35.3018 30.1704 35.5648 29.9687 35.8906L30.9889 36.5223C31.0732 36.3863 31.1936 36.2765 31.3368 36.2052L30.802 35.131ZM29.9687 35.8906C29.767 36.2163 29.6601 36.5919 29.6601 36.9751H30.8601C30.8601 36.8151 30.9047 36.6583 30.9889 36.5223L29.9687 35.8906ZM29.6601 36.9751C29.6601 37.3582 29.767 37.7338 29.9687 38.0596L30.9889 37.4278C30.9047 37.2918 30.8601 37.135 30.8601 36.9751H29.6601ZM29.9687 38.0596C30.1704 38.3853 30.459 38.6484 30.802 38.8192L31.3368 37.7449C31.1936 37.6736 31.0732 37.5638 30.9889 37.4278L29.9687 38.0596ZM30.802 38.8192C31.145 38.9899 31.5288 39.0617 31.9104 39.0263L31.7995 37.8314C31.6403 37.8462 31.48 37.8162 31.3368 37.7449L30.802 38.8192ZM31.9104 39.0263C32.2919 38.9909 32.656 38.8498 32.9617 38.6188L32.2385 37.6613C32.1108 37.7577 31.9588 37.8166 31.7995 37.8314L31.9104 39.0263ZM32.2423 38.6217C32.6005 38.8879 33.0352 39.0311 33.4815 39.0301L33.4787 37.8301C33.2912 37.8305 33.1085 37.7703 32.9579 37.6584L32.2423 38.6217ZM33.5297 39.028C34.0448 38.9853 34.525 38.7505 34.875 38.3702L33.9921 37.5575C33.846 37.7163 33.6455 37.8143 33.4305 37.8321L33.5297 39.028ZM34.875 38.3702C35.2251 37.9899 35.4194 37.4919 35.4194 36.9751H34.2194C34.2194 37.1909 34.1383 37.3987 33.9921 37.5575L34.875 38.3702ZM35.4194 36.9751C35.4194 36.4582 35.2251 35.9602 34.875 35.58L33.9921 36.3927C34.1383 36.5514 34.2194 36.7593 34.2194 36.9751H35.4194ZM34.875 35.58C34.525 35.1997 34.0448 34.9649 33.5297 34.9221L33.4305 36.118C33.6455 36.1359 33.846 36.2339 33.9921 36.3927L34.875 35.58Z" fill="white"/>
</g>
</g>
<defs>
<filter id="filter0_b_19_564" x="-8" y="-8" width="78" height="78" filterUnits="userSpaceOnUse" color-interpolation-filters="sRGB">
<feFlood flood-opacity="0" result="BackgroundImageFix"/>
<feGaussianBlur in="BackgroundImage" stdDeviation="4"/>
<feComposite in2="SourceAlpha" operator="in" result="effect1_backgroundBlur_19_564"/>
<feBlend mode="normal" in="SourceGraphic" in2="effect1_backgroundBlur_19_564" result="shape"/>
</filter>
<filter id="filter1_b_19_564" x="-2" y="-2" width="66" height="66" filterUnits="userSpaceOnUse" color-interpolation-filters="sRGB">
<feFlood flood-opacity="0" result="BackgroundImageFix"/>
<feGaussianBlur in="BackgroundImage" stdDeviation="1"/>
<feComposite in2="SourceAlpha" operator="in" result="effect1_backgroundBlur_19_564"/>
<feBlend mode="normal" in="SourceGraphic" in2="effect1_backgroundBlur_19_564" result="shape"/>
</filter>
<filter id="filter2_bi_19_564" x="4" y="4" width="54" height="54" filterUnits="userSpaceOnUse" color-interpolation-filters="sRGB">
<feFlood flood-opacity="0" result="BackgroundImageFix"/>
<feGaussianBlur in="BackgroundImage" stdDeviation="2"/>
<feComposite in2="SourceAlpha" operator="in" result="effect1_backgroundBlur_19_564"/>
<feBlend mode="normal" in="SourceGraphic" in2="effect1_backgroundBlur_19_564" result="shape"/>
<feColorMatrix in="SourceAlpha" type="matrix" values="0 0 0 0 0 0 0 0 0 0 0 0 0 0 0 0 0 0 127 0" result="hardAlpha"/>
<feOffset dy="-4"/>
<feGaussianBlur stdDeviation="6"/>
<feComposite in2="hardAlpha" operator="arithmetic" k2="-1" k3="1"/>
<feColorMatrix type="matrix" values="0 0 0 0 0 0 0 0 0 0 0 0 0 0 0 0 0 0 0.15 0"/>
<feBlend mode="normal" in2="shape" result="effect2_innerShadow_19_564"/>
</filter>
<filter id="filter3_b_19_564" x="10" y="9.99805" width="42.8701" height="42.8721" filterUnits="userSpaceOnUse" color-interpolation-filters="sRGB">
<feFlood flood-opacity="0" result="BackgroundImageFix"/>
<feGaussianBlur in="BackgroundImage" stdDeviation="4"/>
<feComposite in2="SourceAlpha" operator="in" result="effect1_backgroundBlur_19_564"/>
<feBlend mode="normal" in="SourceGraphic" in2="effect1_backgroundBlur_19_564" result="shape"/>
</filter>
</defs>
</svg>
