<svg width="16" height="16" viewBox="0 0 16 16" fill="none" xmlns="http://www.w3.org/2000/svg">
<path d="M8 16C3.58172 16 0 12.4183 0 8C0 3.58172 3.58172 0 8 0C12.4183 0 16 3.58172 16 8C15.9952 12.4163 12.4163 15.9952 8 16ZM7.2 12V13.6H8.8V12H7.2ZM8 4C8.88366 4 9.6 4.71634 9.6 5.6C9.60281 6.02458 9.43236 6.43195 9.128 6.728L8.136 7.736C7.53715 8.33737 7.20065 9.15131 7.2 10V10.4H8.8C8.73782 9.54001 9.08469 8.70102 9.736 8.136L10.456 7.4C10.9345 6.92345 11.2024 6.27529 11.2 5.6C11.2 3.83269 9.76731 2.4 8 2.4C6.23269 2.4 4.8 3.83269 4.8 5.6H6.4C6.4 4.71634 7.11634 4 8 4Z" fill="#B81C22"/>
</svg>
