<svg width="18" height="10" viewBox="0 0 18 10" fill="none" xmlns="http://www.w3.org/2000/svg">
<g clip-path="url(#clip0_203_6276)">
<path d="M3.52961 5.66957C4.45745 5.66957 5.20961 4.91741 5.20961 3.98957C5.20961 3.06173 4.45745 2.30957 3.52961 2.30957C2.60177 2.30957 1.84961 3.06173 1.84961 3.98957C1.84961 4.91741 2.60177 5.66957 3.52961 5.66957Z" stroke="#83899E" stroke-miterlimit="10"/>
<path d="M0.499076 8.9399C0.483298 8.33768 0.649192 7.74467 0.97516 7.23805C1.30113 6.73143 1.77207 6.33469 2.32667 6.09947C2.88128 5.86425 3.49385 5.80144 4.08465 5.91924C4.67544 6.03703 5.21709 6.32997 5.63908 6.7599" stroke="#83899E" stroke-miterlimit="10"/>
<path d="M13.8304 5.66957C14.7582 5.66957 15.5104 4.91741 15.5104 3.98957C15.5104 3.06173 14.7582 2.30957 13.8304 2.30957C12.9026 2.30957 12.1504 3.06173 12.1504 3.98957C12.1504 4.91741 12.9026 5.66957 13.8304 5.66957Z" stroke="#83899E" stroke-miterlimit="10"/>
<path d="M11.7305 6.76025C12.153 6.33388 12.6938 6.0441 13.2828 5.92836C13.8719 5.81262 14.4821 5.87625 15.0346 6.11103C15.587 6.34581 16.0564 6.74093 16.3819 7.2453C16.7074 7.74968 16.8741 8.34011 16.8605 8.94025" stroke="#83899E" stroke-miterlimit="10"/>
<path d="M8.69953 4.86C9.90351 4.86 10.8795 3.88398 10.8795 2.68C10.8795 1.47602 9.90351 0.5 8.69953 0.5C7.49555 0.5 6.51953 1.47602 6.51953 2.68C6.51953 3.88398 7.49555 4.86 8.69953 4.86Z" stroke="#B81E23" stroke-miterlimit="10"/>
<path d="M4.7793 9.08016C4.7793 8.04051 5.1923 7.04344 5.92744 6.3083C6.66258 5.57316 7.65965 5.16016 8.6993 5.16016C9.73895 5.16016 10.736 5.57316 11.4712 6.3083C12.2063 7.04344 12.6193 8.04051 12.6193 9.08016" stroke="#B81E23" stroke-miterlimit="10"/>
</g>
<defs>
<clipPath id="clip0_203_6276">
<rect width="17.36" height="9.08" fill="white"/>
</clipPath>
</defs>
</svg>
