<svg width="17" height="17" viewBox="0 0 17 17" fill="none" xmlns="http://www.w3.org/2000/svg">
<g clip-path="url(#clip0_203_6302)">
<path d="M7 6L12.52 11.52C12.6613 11.6702 12.74 11.8687 12.74 12.075C12.74 12.2813 12.6613 12.4798 12.52 12.63C12.3706 12.7682 12.1735 12.8435 11.97 12.84C11.7668 12.8415 11.5705 12.7665 11.42 12.63L6 7.07" stroke="#83899E" stroke-linecap="round" stroke-linejoin="round"/>
<path d="M5.39977 2.5C5.10008 3.13121 4.69418 3.70624 4.19977 4.2C3.70758 4.70244 3.13675 5.12127 2.50977 5.44" stroke="#83899E" stroke-linecap="round" stroke-linejoin="round"/>
<path d="M8 5C7.35169 5.31592 6.76565 5.74614 6.27 6.27C5.7448 6.76448 5.3144 7.35078 5 8" stroke="#83899E" stroke-linecap="round" stroke-linejoin="round"/>
<path d="M9.73075 3.22047L7.25075 0.740472C7.17545 0.664583 7.08587 0.604349 6.98719 0.563244C6.8885 0.522139 6.78265 0.500977 6.67575 0.500977C6.56884 0.500977 6.46299 0.522139 6.3643 0.563244C6.26562 0.604349 6.17604 0.664583 6.10075 0.740472L5.52075 1.32047C5.44486 1.39577 5.38462 1.48534 5.34352 1.58403C5.30241 1.68272 5.28125 1.78857 5.28125 1.89547C5.28125 2.00238 5.30241 2.10823 5.34352 2.20691C5.38462 2.3056 5.44486 2.39518 5.52075 2.47047L8.00075 5.00047C8.07604 5.07636 8.16562 5.1366 8.2643 5.1777C8.36299 5.21881 8.46884 5.23997 8.57575 5.23997C8.68265 5.23997 8.7885 5.21881 8.88719 5.1777C8.98587 5.1366 9.07545 5.07636 9.15075 5.00047L9.73075 4.42047C9.81447 4.34454 9.88137 4.25194 9.92716 4.1486C9.97294 4.04527 9.9966 3.9335 9.9966 3.82047C9.9966 3.70745 9.97294 3.59568 9.92716 3.49234C9.88137 3.38901 9.81447 3.2964 9.73075 3.22047Z" fill="white" stroke="#83899E" stroke-linecap="round" stroke-linejoin="round"/>
<path d="M5.00034 7.99977L2.47035 5.51977C2.39505 5.44388 2.30547 5.38365 2.20679 5.34254C2.1081 5.30144 2.00225 5.28027 1.89534 5.28027C1.78844 5.28027 1.68259 5.30144 1.5839 5.34254C1.48522 5.38365 1.39564 5.44388 1.32034 5.51977L0.740345 6.08977C0.664149 6.16592 0.603705 6.25634 0.562465 6.35586C0.521226 6.45537 0.5 6.56204 0.5 6.66977C0.5 6.77749 0.521226 6.88416 0.562465 6.98368C0.603705 7.0832 0.664149 7.17362 0.740345 7.24977L3.22035 9.72977C3.37493 9.87827 3.58098 9.96121 3.79535 9.96121C4.00971 9.96121 4.21576 9.87827 4.37034 9.72977L5.00034 9.14977C5.07623 9.07447 5.13647 8.9849 5.17757 8.88621C5.21868 8.78752 5.23984 8.68167 5.23984 8.57477C5.23984 8.46786 5.21868 8.36202 5.17757 8.26333C5.13647 8.16464 5.07623 8.07507 5.00034 7.99977Z" fill="white" stroke="#83899E" stroke-linecap="round" stroke-linejoin="round"/>
<path d="M12.1605 15.9899C14.3309 15.9899 16.0905 14.2304 16.0905 12.0599C16.0905 9.8894 14.3309 8.12988 12.1605 8.12988C9.98999 8.12988 8.23047 9.8894 8.23047 12.0599C8.23047 14.2304 9.98999 15.9899 12.1605 15.9899Z" fill="#B81E23" stroke="white" stroke-miterlimit="10"/>
<path d="M12.1602 9.75977V14.3498" stroke="white" stroke-miterlimit="10"/>
<path d="M14.4591 12.0596H9.86914" stroke="white" stroke-miterlimit="10"/>
</g>
<defs>
<clipPath id="clip0_203_6302">
<rect width="16.59" height="16.49" fill="white"/>
</clipPath>
</defs>
</svg>
