<svg width="24" height="24" viewBox="0 0 24 24" fill="none" xmlns="http://www.w3.org/2000/svg">
<path d="M19.3213 11.2863L15.5613 9.11634L12.8513 11.8363L15.6013 14.5463L19.3213 12.3963C19.4148 12.3343 19.4933 12.2523 19.5513 12.1563C19.6125 12.061 19.6438 11.9496 19.6413 11.8363C19.641 11.7235 19.6099 11.6128 19.5513 11.5163C19.4904 11.4254 19.4122 11.3473 19.3213 11.2863Z" fill="#BABABA"/>
<path d="M3.41132 21.2863L3.57132 21.3363C3.70986 21.3556 3.85083 21.3274 3.97132 21.2563H4.01132L15.1813 14.8063L12.4913 12.1863L3.41132 21.2863Z" fill="#BABABA"/>
<path d="M7.46132 7.21634L3.01132 2.84634C3.00494 2.89613 3.00494 2.94654 3.01132 2.99634L3.01132 20.7063C2.99623 20.7789 2.99623 20.8538 3.01132 20.9263L12.1413 11.8363L7.46132 7.21634Z" fill="#BABABA"/>
<path d="M3.55132 2.35634C3.47331 2.36777 3.39846 2.395 3.33132 2.43634L7.82132 6.86634L12.4913 11.4863L15.1113 8.85634L4.01132 2.42634C3.87289 2.34417 3.70793 2.31907 3.55132 2.35634Z" fill="#BABABA"/>
</svg>
