<svg width="19" height="20" viewBox="0 0 19 20" fill="none" xmlns="http://www.w3.org/2000/svg">
<path d="M11.256 19H7.75993C7.65384 19.0009 7.55108 18.963 7.47101 18.8933C7.39095 18.8237 7.33913 18.7272 7.32529 18.622L6.99458 16.2409C6.46673 16.0181 5.97101 15.7257 5.52057 15.3716L3.34734 16.2693H3.19617C3.11667 16.2725 3.03789 16.2529 2.96922 16.2127C2.90055 16.1725 2.84487 16.1134 2.80877 16.0425L1.05129 12.9339C1.00559 12.8384 0.991932 12.7307 1.01236 12.6269C1.03279 12.523 1.08621 12.4285 1.16467 12.3575L3.05443 10.8835C2.95989 10.3015 2.95989 9.708 3.05443 9.12599L1.16467 7.65197C1.08202 7.58369 1.02623 7.48832 1.0072 7.38281C0.988174 7.2773 1.00714 7.16845 1.06073 7.0756L2.80877 3.96694C2.84503 3.89821 2.89943 3.84074 2.96607 3.80076C3.0327 3.76078 3.10901 3.73982 3.18671 3.74017C3.2367 3.73114 3.28791 3.73114 3.3379 3.74017L5.51113 4.6378C5.96459 4.2806 6.46342 3.98511 6.99458 3.75907L7.32529 1.37797C7.33696 1.27357 7.38687 1.1772 7.46538 1.10741C7.54389 1.03762 7.64545 0.999366 7.75049 1.00002H11.2465C11.3526 0.99911 11.4554 1.03704 11.5355 1.10666C11.6155 1.17628 11.6674 1.27278 11.6812 1.37797L12.0119 3.75907C12.5397 3.98191 13.0355 4.27426 13.4859 4.62836L15.6591 3.68348H15.8103C15.8898 3.68024 15.9686 3.69989 16.0373 3.74008C16.1059 3.78028 16.1616 3.83934 16.1977 3.91025L17.9457 7.0189C17.9941 7.11305 18.0102 7.22052 17.9914 7.32469C17.9726 7.42887 17.92 7.52396 17.8418 7.59528L15.9521 9.06929C15.9976 9.35996 16.0197 9.65382 16.0182 9.94803C16.0181 10.2419 15.9992 10.5354 15.9615 10.8268L17.7946 12.3008C17.8772 12.3691 17.933 12.4644 17.952 12.5699C17.9711 12.6755 17.9521 12.7843 17.8985 12.8772L16.1505 15.9858C16.1142 16.0545 16.0598 16.112 15.9932 16.152C15.9265 16.192 15.8502 16.2129 15.7725 16.2126C15.7226 16.2225 15.6712 16.2225 15.6213 16.2126L13.4481 15.2677C12.9946 15.6249 12.4958 15.9204 11.9647 16.1464L11.6339 18.5275C11.6405 18.5834 11.6359 18.6401 11.6204 18.6942C11.6049 18.7483 11.5788 18.7988 11.5437 18.8427C11.5085 18.8867 11.465 18.9232 11.4156 18.9502C11.3662 18.9772 11.312 18.9941 11.256 19V19ZM9.50797 6.65985C8.83499 6.6412 8.1719 6.82491 7.60448 7.18722C7.03706 7.54954 6.59141 8.07378 6.32518 8.69214C6.05895 9.31049 5.9844 9.99451 6.11116 10.6557C6.23793 11.3169 6.56017 11.9248 7.03622 12.4009C7.51227 12.8769 8.12021 13.1992 8.7814 13.3259C9.44259 13.4527 10.1266 13.3781 10.745 13.1119C11.3633 12.8457 11.8876 12.4 12.2499 11.8326C12.6122 11.2652 12.7959 10.6021 12.7773 9.92913C12.7534 9.06959 12.4013 8.25181 11.7933 7.64378C11.1853 7.03576 10.3675 6.68367 9.50797 6.65985V6.65985Z" stroke="#333333" stroke-width="2"/>
</svg>
