<svg width="24" height="24" viewBox="0 0 24 24" fill="none" xmlns="http://www.w3.org/2000/svg">
<path d="M14.256 21H10.7599C10.6538 21.0009 10.5511 20.963 10.471 20.8933C10.391 20.8237 10.3391 20.7272 10.3253 20.622L9.99458 18.2409C9.46673 18.0181 8.97101 17.7257 8.52057 17.3716L6.34734 18.2693H6.19617C6.11667 18.2725 6.03789 18.2529 5.96922 18.2127C5.90055 18.1725 5.84487 18.1134 5.80877 18.0425L4.05129 14.9339C4.00559 14.8384 3.99193 14.7307 4.01236 14.6269C4.03279 14.523 4.08621 14.4285 4.16467 14.3575L6.05443 12.8835C5.95989 12.3015 5.95989 11.708 6.05443 11.126L4.16467 9.65197C4.08202 9.58369 4.02623 9.48832 4.0072 9.38281C3.98817 9.2773 4.00714 9.16845 4.06073 9.0756L5.80877 5.96694C5.84503 5.89821 5.89943 5.84074 5.96607 5.80076C6.0327 5.76078 6.10901 5.73982 6.18671 5.74017C6.2367 5.73114 6.28791 5.73114 6.3379 5.74017L8.51113 6.6378C8.96459 6.2806 9.46342 5.98511 9.99458 5.75907L10.3253 3.37797C10.337 3.27357 10.3869 3.1772 10.4654 3.10741C10.5439 3.03762 10.6454 2.99937 10.7505 3.00002H14.2465C14.3526 2.99911 14.4554 3.03704 14.5355 3.10666C14.6155 3.17628 14.6674 3.27278 14.6812 3.37797L15.0119 5.75907C15.5397 5.98191 16.0355 6.27426 16.4859 6.62836L18.6591 5.68348H18.8103C18.8898 5.68024 18.9686 5.69989 19.0373 5.74008C19.1059 5.78028 19.1616 5.83934 19.1977 5.91025L20.9457 9.0189C20.9941 9.11305 21.0102 9.22052 20.9914 9.32469C20.9726 9.42887 20.92 9.52396 20.8418 9.59528L18.9521 11.0693C18.9976 11.36 19.0197 11.6538 19.0182 11.948C19.0181 12.2419 18.9992 12.5354 18.9615 12.8268L20.7946 14.3008C20.8772 14.3691 20.933 14.4644 20.952 14.5699C20.9711 14.6755 20.9521 14.7843 20.8985 14.8772L19.1505 17.9858C19.1142 18.0545 19.0598 18.112 18.9932 18.152C18.9265 18.192 18.8502 18.2129 18.7725 18.2126C18.7226 18.2225 18.6712 18.2225 18.6213 18.2126L16.4481 17.2677C15.9946 17.6249 15.4958 17.9204 14.9647 18.1464L14.6339 20.5275C14.6405 20.5834 14.6359 20.6401 14.6204 20.6942C14.6049 20.7483 14.5788 20.7988 14.5437 20.8427C14.5085 20.8867 14.465 20.9232 14.4156 20.9502C14.3662 20.9772 14.312 20.9941 14.256 21V21ZM12.508 8.65985C11.835 8.6412 11.1719 8.82491 10.6045 9.18722C10.0371 9.54954 9.59141 10.0738 9.32518 10.6921C9.05895 11.3105 8.9844 11.9945 9.11116 12.6557C9.23793 13.3169 9.56017 13.9248 10.0362 14.4009C10.5123 14.8769 11.1202 15.1992 11.7814 15.3259C12.4426 15.4527 13.1266 15.3781 13.745 15.1119C14.3633 14.8457 14.8876 14.4 15.2499 13.8326C15.6122 13.2652 15.7959 12.6021 15.7773 11.9291C15.7534 11.0696 15.4013 10.2518 14.7933 9.64378C14.1853 9.03576 13.3675 8.68367 12.508 8.65985V8.65985Z" stroke="#333333" stroke-width="2"/>
</svg>
