<svg width="16" height="20" viewBox="0 0 16 20" fill="none" xmlns="http://www.w3.org/2000/svg">
<path d="M8 19.5C7.46957 19.5 6.96086 19.2893 6.58578 18.9142C6.21071 18.5391 6 18.0304 6 17.5H10C10 18.0304 9.78929 18.5391 9.41422 18.9142C9.03914 19.2893 8.53043 19.5 8 19.5ZM16 16.5H0V15.5L2 13.5V8.5C1.96935 7.0579 2.38115 5.64102 3.18 4.44C3.96434 3.29723 5.14921 2.49064 6.5 2.17999V1.5C6.5 1.10218 6.65803 0.720636 6.93934 0.439331C7.22064 0.158026 7.60218 0 8 0C8.39782 0 8.77936 0.158026 9.06066 0.439331C9.34197 0.720636 9.5 1.10218 9.5 1.5V2.17999C10.8525 2.49288 12.0398 3.29868 12.83 4.44C13.6201 5.64457 14.0279 7.0597 14 8.5V13.5L16 15.5V16.5ZM8 4C7.4438 3.98556 6.8915 4.09675 6.38421 4.32529C5.87692 4.55383 5.42771 4.89384 5.07 5.32001C4.34946 6.22065 3.97047 7.34698 4 8.5V14.5H12V8.5C12.0295 7.34698 11.6505 6.22065 10.93 5.32001C10.5723 4.89384 10.1231 4.55383 9.61579 4.32529C9.1085 4.09675 8.5562 3.98556 8 4Z" fill="#333333"/>
</svg>
