<svg width="14" height="19" viewBox="0 0 14 19" fill="none" xmlns="http://www.w3.org/2000/svg">
<path d="M8.51 18.25H2.36C1.99931 18.25 1.65338 18.1067 1.39833 17.8517C1.14329 17.5966 1 17.2507 1 16.89V2.11C1 1.74931 1.14329 1.40338 1.39833 1.14833C1.65338 0.893285 1.99931 0.75 2.36 0.75H11.25C11.6107 0.75 11.9566 0.893285 12.2117 1.14833C12.4667 1.40338 12.61 1.74931 12.61 2.11V12.6C12.6053 12.8544 12.5328 13.103 12.4 13.32L9.7 17.61C9.57536 17.8118 9.39974 17.9772 9.19083 18.0896C8.98192 18.2019 8.7471 18.2573 8.51 18.25Z" stroke="#333333" stroke-width="1.5" stroke-linecap="round" stroke-linejoin="round"/>
<path d="M9.32 17.92L8.25 15.07C8.20601 14.9382 8.18999 14.7986 8.20297 14.6602C8.21595 14.5218 8.25765 14.3876 8.3254 14.2662C8.39315 14.1448 8.48547 14.0389 8.59646 13.9552C8.70745 13.8715 8.83467 13.8118 8.97 13.78L12.47 12.78" stroke="#333333" stroke-width="1.5" stroke-linecap="round" stroke-linejoin="round"/>
<line x1="4" y1="5.5" x2="9" y2="5.5" stroke="#B81C22"/>
<line x1="4" y1="8.5" x2="9" y2="8.5" stroke="#B81C22"/>
</svg>
