<svg width="20" height="24" viewBox="0 0 20 24" fill="none" xmlns="http://www.w3.org/2000/svg">
<path d="M15.6093 12.6339C15.5855 10.1091 17.6804 8.88054 17.7754 8.82124C16.5875 7.09367 14.7514 6.85813 14.1058 6.83949C12.5607 6.67767 11.064 7.76131 10.2783 7.76131C9.47481 7.76131 8.26319 6.85475 6.95909 6.87932C5.27912 6.90897 3.70775 7.87993 2.8491 9.38805C1.06731 12.4636 2.39856 16.9812 4.10144 19.4704C4.94992 20.6871 5.95026 22.0487 7.25351 21.9987C8.52622 21.947 9.00476 21.187 10.5456 21.187C12.0728 21.187 12.5183 21.9987 13.8487 21.969C15.2173 21.947 16.0785 20.7464 16.9032 19.517C17.5132 18.6489 17.9817 17.6898 18.2913 16.6753C18.2582 16.6643 15.633 15.6586 15.6067 12.6339" fill="#777777"/>
<path d="M13.0971 5.20518C13.7827 4.34776 14.2527 3.18616 14.1229 2C13.1302 2.0449 11.8872 2.68628 11.1728 3.52507C10.539 4.26218 9.97645 5.47376 10.1215 6.60994C11.2356 6.69467 12.3802 6.04905 13.0971 5.20518Z" fill="#777777"/>
</svg>
