<svg width="26" height="21" viewBox="0 0 26 21" fill="none" xmlns="http://www.w3.org/2000/svg">
<path d="M13 7.875C12.4878 7.875 11.9807 7.97685 11.5075 8.17472C11.0344 8.3726 10.6044 8.66264 10.2423 9.02827C9.88013 9.3939 9.59286 9.82796 9.39687 10.3057C9.20088 10.7834 9.1 11.2954 9.1 11.8125C9.1 12.3296 9.20088 12.8416 9.39687 13.3193C9.59286 13.797 9.88013 14.2311 10.2423 14.5967C10.6044 14.9624 11.0344 15.2524 11.5075 15.4503C11.9807 15.6482 12.4878 15.75 13 15.75C14.0343 15.75 15.0263 15.3352 15.7577 14.5967C16.4891 13.8583 16.9 12.8568 16.9 11.8125C16.9 10.7682 16.4891 9.76669 15.7577 9.02827C15.0263 8.28984 14.0343 7.875 13 7.875ZM23.4 3.9375H20.28C20.0555 3.92716 19.8388 3.85086 19.6566 3.71796C19.4744 3.58507 19.3346 3.40135 19.2543 3.18937L18.447 0.746813C18.3662 0.53507 18.226 0.351683 18.0436 0.219058C17.8612 0.0864333 17.6445 0.0103139 17.42 0H8.58C8.151 0 7.6882 0.336 7.5543 0.7455L6.7457 3.18937C6.6653 3.40126 6.52545 3.58488 6.34327 3.71775C6.1611 3.85063 5.9445 3.92699 5.72 3.9375H2.6C1.17 3.9375 0 5.11875 0 6.5625V18.375C0 19.8188 1.17 21 2.6 21H23.4C24.83 21 26 19.8188 26 18.375V6.5625C26 5.11875 24.83 3.9375 23.4 3.9375ZM13 18.375C11.2761 18.375 9.62279 17.6836 8.40381 16.4529C7.18482 15.2222 6.5 13.553 6.5 11.8125C6.5 10.072 7.18482 8.40282 8.40381 7.17211C9.62279 5.9414 11.2761 5.25 13 5.25C14.7239 5.25 16.3772 5.9414 17.5962 7.17211C18.8152 8.40282 19.5 10.072 19.5 11.8125C19.5 13.553 18.8152 15.2222 17.5962 16.4529C16.3772 17.6836 14.7239 18.375 13 18.375ZM22.75 8.1375C22.5087 8.1375 22.2772 8.0407 22.1065 7.8684C21.9359 7.69611 21.84 7.46242 21.84 7.21875C21.84 6.97508 21.9359 6.74139 22.1065 6.5691C22.2772 6.3968 22.5087 6.3 22.75 6.3C22.9913 6.3 23.2228 6.3968 23.3935 6.5691C23.5641 6.74139 23.66 6.97508 23.66 7.21875C23.66 7.46242 23.5641 7.69611 23.3935 7.8684C23.2228 8.0407 22.9913 8.1375 22.75 8.1375Z" fill="#B81C22"/>
</svg>
