<?xml version="1.0" encoding="utf-8"?>
<!-- Generator: Adobe Illustrator 26.3.0, SVG Export Plug-In . SVG Version: 6.00 Build 0)  -->
<svg version="1.1" baseProfile="basic" id="Layer_1"
	 xmlns="http://www.w3.org/2000/svg" xmlns:xlink="http://www.w3.org/1999/xlink" x="0px" y="0px" viewBox="0 0 24 24"
	 xml:space="preserve">
<g>
	<g>
		<path fill="#A72E25" d="M16,4v8H8c-0.9,0-1.7,0.3-2.4,0.8L4,14V4H16 M16,2H4C2.9,2,2,2.9,2,4v14l4.8-3.6C7.2,14.2,7.6,14,8,14
			c0,0,0,0,0,0h8c1.1,0,2-0.9,2-2V4C18,2.9,17.1,2,16,2L16,2z"/>
	</g>
	<g>
		<path fill="#333333" d="M20,18l-1.6-1.2C17.7,16.3,16.9,16,16,16H7.8c0,1.1,0.9,2,2,2H16c0,0,0,0,0,0c0.4,0,0.9,0.1,1.2,0.4L22,22
			V8.8c0-1.1-0.9-2-2-2l0,0V18z"/>
	</g>
</g>
</svg>
