<svg width="20" height="20" viewBox="0 0 20 20" fill="none" xmlns="http://www.w3.org/2000/svg">
<path d="M1.5 0.789474C1.5 0.353459 1.16421 0 0.75 0C0.335786 0 0 0.353459 0 0.789474V19.2105C0 19.6465 0.335786 20 0.75 20C1.16421 20 1.5 19.6465 1.5 19.2105V0.789474Z" fill="#333333"/>
<path d="M19.2105 20C19.6465 20 20 19.6642 20 19.25C20 18.8358 19.6465 18.5 19.2105 18.5H0.789473C0.353458 18.5 0 18.8358 0 19.25C0 19.6642 0.353458 20 0.789473 20H19.2105Z" fill="#333333"/>
<path d="M3 12L7.37363 7.27797L11.1319 11.3356L17 5" stroke="#B81C22" stroke-width="1.5" stroke-miterlimit="10"/>
<path d="M19 2.32045L15.53 3.25045C15.462 3.26846 15.3999 3.3041 15.35 3.35377C15.3002 3.40344 15.2643 3.46538 15.2461 3.53335C15.2278 3.60131 15.2278 3.67289 15.246 3.74086C15.2643 3.80882 15.3002 3.87077 15.35 3.92045L16.62 5.19045L17.89 6.46045C17.9397 6.5103 18.0016 6.54615 18.0696 6.5644C18.1376 6.58265 18.2091 6.58265 18.2771 6.56439C18.3451 6.54613 18.407 6.51026 18.4567 6.46041C18.5063 6.41056 18.542 6.34848 18.56 6.28045L19.5 2.81045C19.5191 2.74158 19.5193 2.66885 19.5008 2.59984C19.4822 2.53083 19.4455 2.46805 19.3945 2.41803C19.3434 2.36801 19.2799 2.33257 19.2105 2.31541C19.1412 2.29825 19.0685 2.29999 19 2.32045Z" fill="#B81C22"/>
</svg>
