<svg width="16" height="15" viewBox="0 0 16 15" fill="none" xmlns="http://www.w3.org/2000/svg">
<path d="M7.54489 1.00026C7.7226 0.609682 8.2774 0.609681 8.45511 1.00026L10.2577 4.96212C10.3334 5.12853 10.4939 5.24035 10.6763 5.25372L15.269 5.5903C15.7249 5.62371 15.9006 6.20081 15.5407 6.48263L12.1102 9.16894C11.9533 9.29179 11.8843 9.49605 11.9346 9.68885L12.9941 13.7489C13.1053 14.1751 12.6511 14.5264 12.2665 14.3117L8.24375 12.0656C8.09226 11.981 7.90774 11.981 7.75625 12.0656L3.73347 14.3117C3.34893 14.5264 2.89472 14.1751 3.00592 13.7489L4.06535 9.68885C4.11566 9.49605 4.0467 9.29179 3.88982 9.16894L0.459265 6.48263C0.0993754 6.20081 0.275107 5.62371 0.730983 5.5903L5.32372 5.25372C5.50606 5.24035 5.66656 5.12853 5.74228 4.96212L7.54489 1.00026Z" fill="#EBEBEB"/>
</svg>
